<?xml version="1.0" encoding="UTF-8" standalone="no"?>
<svg
   xmlns:dc="http://purl.org/dc/elements/1.1/"
   xmlns:cc="http://creativecommons.org/ns#"
   xmlns:rdf="http://www.w3.org/1999/02/22-rdf-syntax-ns#"
   xmlns:svg="http://www.w3.org/2000/svg"
   xmlns="http://www.w3.org/2000/svg"
   xmlns:sodipodi="http://sodipodi.sourceforge.net/DTD/sodipodi-0.dtd"
   xmlns:inkscape="http://www.inkscape.org/namespaces/inkscape"
   sodipodi:docname="drawing1.svg"
   inkscape:version="1.0 (4035a4fb49, 2020-05-01)"
   id="svg8"
   version="1.1"
   viewBox="0 0 210 297"
   height="1122.5197"
   width="793.70081">
  <defs
     id="defs2">
    <inkscape:path-effect
       hide_knots="false"
       only_selected="false"
       apply_with_radius="true"
       apply_no_radius="true"
       use_knot_distance="true"
       flexible="false"
       chamfer_steps="1"
       radius="2"
       mode="F"
       method="auto"
       unit="px"
       satellites_param="F,0,0,1,0,2,0,1 @ F,0,0,1,0,2,0,1 @ F,0,0,1,0,2,0,1 @ F,0,0,1,0,2,0,1 @ F,0,0,1,0,2,0,1 @ F,0,0,1,0,2,0,1 @ F,0,0,1,0,2,0,1 @ F,0,0,1,0,2,0,1 @ F,0,0,1,0,2,0,1 @ F,0,0,1,0,2,0,1 @ F,0,0,1,0,2,0,1 @ F,0,0,1,0,2,0,1 @ F,0,0,1,0,2,0,1 @ F,0,0,1,0,2,0,1 @ F,0,0,1,0,2,0,1 @ F,0,0,1,0,2,0,1 @ F,0,0,1,0,2,0,1 @ F,0,0,1,0,2,0,1 @ F,0,0,1,0,2,0,1 @ F,0,0,1,0,2,0,1 @ F,0,0,1,0,2,0,1 @ F,0,0,1,0,2,0,1 @ F,0,0,1,0,2,0,1 @ F,0,0,1,0,2,0,1 @ F,0,0,1,0,2,0,1 @ F,0,0,1,0,2,0,1 @ F,0,0,1,0,2,0,1 @ F,0,0,1,0,2,0,1 @ F,0,0,1,0,2,0,1 @ F,0,0,1,0,2,0,1 @ F,0,0,1,0,2,0,1 @ F,0,0,1,0,2,0,1 @ F,0,0,1,0,2,0,1 @ F,0,0,1,0,2,0,1 @ F,0,0,1,0,2,0,1 @ F,0,0,1,0,2,0,1 @ F,0,0,1,0,2,0,1 @ F,0,0,1,0,2,0,1 @ F,0,0,1,0,2,0,1 @ F,0,0,1,0,2,0,1 @ F,0,0,1,0,2,0,1 @ F,0,0,1,0,2,0,1 @ F,0,0,1,0,2,0,1 @ F,0,0,1,0,2,0,1 @ F,0,0,1,0,2,0,1 @ F,0,0,1,0,2,0,1 @ F,0,0,1,0,2,0,1 @ F,0,0,1,0,2,0,1 @ F,0,0,1,0,2,0,1 @ F,0,0,1,0,2,0,1 @ F,0,0,1,0,2,0,1 @ F,0,0,1,0,2,0,1 @ F,0,0,1,0,2,0,1 @ F,0,0,1,0,2,0,1 @ F,0,0,1,0,2,0,1 @ F,0,0,1,0,2,0,1 @ F,0,0,1,0,2,0,1 @ F,0,0,1,0,2,0,1 @ F,0,0,1,0,2,0,1 @ F,0,0,1,0,2,0,1 @ F,0,0,1,0,2,0,1 @ F,0,0,1,0,2,0,1 @ F,0,0,1,0,2,0,1 @ F,0,0,1,0,2,0,1 @ F,0,0,1,0,2,0,1 @ F,0,0,1,0,2,0,1 @ F,0,0,1,0,2,0,1 @ F,0,0,1,0,2,0,1 @ F,0,0,1,0,2,0,1 @ F,0,0,1,0,2,0,1 @ F,0,0,1,0,2,0,1 @ F,0,0,1,0,2,0,1 @ F,0,0,1,0,2,0,1 @ F,0,0,1,0,2,0,1 @ F,0,0,1,0,2,0,1 @ F,0,0,1,0,2,0,1 @ F,0,0,1,0,2,0,1 @ F,0,0,1,0,2,0,1 @ F,0,0,1,0,2,0,1 @ F,0,0,1,0,2,0,1 @ F,0,0,1,0,2,0,1 @ F,0,0,1,0,2,0,1 @ F,0,0,1,0,2,0,1 @ F,0,0,1,0,2,0,1 @ F,0,0,1,0,2,0,1 @ F,0,0,1,0,2,0,1 @ F,0,0,1,0,2,0,1 @ F,0,0,1,0,2,0,1 @ F,0,0,1,0,2,0,1 @ F,0,0,1,0,2,0,1 @ F,0,0,1,0,2,0,1 @ F,0,0,1,0,2,0,1 @ F,0,0,1,0,2,0,1 @ F,0,0,1,0,2,0,1 @ F,0,0,1,0,2,0,1 @ F,0,0,1,0,2,0,1 @ F,0,0,1,0,2,0,1 @ F,0,0,1,0,2,0,1 @ F,0,0,1,0,2,0,1 @ F,0,0,1,0,2,0,1 @ F,0,0,1,0,2,0,1 @ F,0,0,1,0,2,0,1 @ F,0,0,1,0,2,0,1 @ F,0,0,1,0,2,0,1 @ F,0,0,1,0,2,0,1 @ F,0,0,1,0,2,0,1 @ F,0,0,1,0,2,0,1 @ F,0,0,1,0,2,0,1 @ F,0,0,1,0,2,0,1 @ F,0,0,1,0,2,0,1 @ F,0,0,1,0,2,0,1 @ F,0,0,1,0,2,0,1 @ F,0,0,1,0,2,0,1 @ F,0,0,1,0,2,0,1 @ F,0,0,1,0,2,0,1 @ F,0,0,1,0,2,0,1 @ F,0,0,1,0,2,0,1 @ F,0,0,1,0,2,0,1 @ F,0,0,1,0,2,0,1 @ F,0,0,1,0,2,0,1 @ F,0,0,1,0,2,0,1 @ F,0,0,1,0,2,0,1 @ F,0,0,1,0,2,0,1 @ F,0,0,1,0,2,0,1 @ F,0,0,1,0,2,0,1 @ F,0,0,1,0,2,0,1 @ F,0,0,1,0,2,0,1 @ F,0,0,1,0,2,0,1 @ F,0,0,1,0,2,0,1 @ F,0,0,1,0,2,0,1 @ F,0,0,1,0,2,0,1 @ F,0,0,1,0,2,0,1 @ F,0,0,1,0,2,0,1 @ F,0,0,1,0,2,0,1 @ F,0,0,1,0,2,0,1 @ F,0,0,1,0,2,0,1 @ F,0,0,1,0,2,0,1 @ F,0,0,1,0,2,0,1 @ F,0,0,1,0,2,0,1 @ F,0,0,1,0,2,0,1 @ F,0,0,1,0,2,0,1 @ F,0,0,1,0,2,0,1 @ F,0,0,1,0,2,0,1 @ F,0,0,1,0,2,0,1 @ F,0,0,1,0,2,0,1 @ F,0,0,1,0,2,0,1 @ F,0,0,1,0,2,0,1 @ F,0,0,1,0,2,0,1 @ F,0,0,1,0,2,0,1 @ F,0,0,1,0,2,0,1 @ F,0,0,1,0,2,0,1 @ F,0,0,1,0,2,0,1 @ F,0,0,1,0,2,0,1 @ F,0,0,1,0,2,0,1 @ F,0,0,1,0,2,0,1 @ F,0,0,1,0,2,0,1 @ F,0,0,1,0,2,0,1 @ F,0,0,1,0,2,0,1 @ F,0,0,1,0,2,0,1 @ F,0,0,1,0,2,0,1 @ F,0,0,1,0,2,0,1 @ F,0,0,1,0,2,0,1 @ F,0,0,1,0,2,0,1 @ F,0,0,1,0,2,0,1 @ F,0,0,1,0,2,0,1 @ F,0,0,1,0,2,0,1 @ F,0,0,1,0,2,0,1 @ F,0,0,1,0,2,0,1 @ F,0,0,1,0,2,0,1 @ F,0,0,1,0,2,0,1 @ F,0,0,1,0,2,0,1 @ F,0,0,1,0,2,0,1 @ F,0,0,1,0,2,0,1 @ F,0,0,1,0,2,0,1 @ F,0,0,1,0,2,0,1 @ F,0,0,1,0,2,0,1 @ F,0,0,1,0,2,0,1 @ F,0,0,1,0,2,0,1 @ F,0,0,1,0,2,0,1 @ F,0,0,1,0,2,0,1 @ F,0,0,1,0,2,0,1 @ F,0,0,1,0,2,0,1 @ F,0,0,1,0,2,0,1 @ F,0,0,1,0,2,0,1 @ F,0,0,1,0,2,0,1 @ F,0,0,1,0,2,0,1 @ F,0,0,1,0,2,0,1 @ F,0,0,1,0,2,0,1 @ F,0,0,1,0,2,0,1 @ F,0,0,1,0,2,0,1 @ F,0,0,1,0,2,0,1 @ F,0,0,1,0,2,0,1 @ F,0,0,1,0,2,0,1 @ F,0,0,1,0,2,0,1 @ F,0,0,1,0,2,0,1 @ F,0,0,1,0,2,0,1 @ F,0,0,1,0,2,0,1 @ F,0,0,1,0,2,0,1 @ F,0,0,1,0,2,0,1 @ F,0,0,1,0,2,0,1 @ F,0,0,1,0,2,0,1 @ F,0,0,1,0,2,0,1 @ F,0,0,1,0,2,0,1 @ F,0,0,1,0,2,0,1 @ F,0,0,1,0,2,0,1 @ F,0,0,1,0,2,0,1 @ F,0,0,1,0,2,0,1 @ F,0,0,1,0,2,0,1 @ F,0,0,1,0,2,0,1 @ F,0,0,1,0,2,0,1 @ F,0,0,1,0,2,0,1 @ F,0,0,1,0,2,0,1 @ F,0,0,1,0,2,0,1 @ F,0,0,1,0,2,0,1 @ F,0,0,1,0,2,0,1 @ F,0,0,1,0,2,0,1 @ F,0,0,1,0,2,0,1 @ F,0,0,1,0,2,0,1 @ F,0,0,1,0,2,0,1 @ F,0,0,1,0,2,0,1 @ F,0,0,1,0,2,0,1 @ F,0,0,1,0,2,0,1 @ F,0,0,1,0,2,0,1 @ F,0,0,1,0,2,0,1 @ F,0,0,1,0,2,0,1 @ F,0,0,1,0,2,0,1 @ F,0,0,1,0,2,0,1 @ F,0,0,1,0,2,0,1 @ F,0,0,1,0,2,0,1 @ F,0,0,1,0,2,0,1 @ F,0,0,1,0,2,0,1 @ F,0,0,1,0,2,0,1 @ F,0,0,1,0,2,0,1 @ F,0,0,1,0,2,0,1 @ F,0,0,1,0,2,0,1 @ F,0,0,1,0,2,0,1 @ F,0,0,1,0,2,0,1 @ F,0,0,1,0,2,0,1 @ F,0,0,1,0,2,0,1 @ F,0,0,1,0,2,0,1 @ F,0,0,1,0,2,0,1 @ F,0,0,1,0,2,0,1 @ F,0,0,1,0,2,0,1 @ F,0,0,1,0,2,0,1 @ F,0,0,1,0,2,0,1 @ F,0,0,1,0,2,0,1 | F,0,0,1,0,2,0,1 @ F,0,0,1,0,2,0,1 @ F,0,0,1,0,2,0,1 @ F,0,0,1,0,2,0,1 @ F,0,0,1,0,2,0,1 @ F,0,0,1,0,2,0,1 @ F,0,0,1,0,2,0,1 | F,0,0,1,0,2,0,1 @ F,0,0,1,0,2,0,1 @ F,0,0,1,0,2,0,1 @ F,0,0,1,0,2,0,1 @ F,0,0,1,0,2,0,1 @ F,0,0,1,0,2,0,1 @ F,0,0,1,0,2,0,1 | F,0,0,1,0,2,0,1 @ F,0,0,1,0,2,0,1 @ F,0,0,1,0,2,0,1 @ F,0,0,1,0,2,0,1 @ F,0,0,1,0,2,0,1 | F,0,0,1,0,2,0,1 @ F,0,0,1,0,2,0,1 @ F,0,0,1,0,2,0,1 @ F,0,0,1,0,2,0,1 @ F,0,0,1,0,2,0,1 | F,0,0,1,0,2,0,1 @ F,0,0,1,0,2,0,1 @ F,0,0,1,0,2,0,1 @ F,0,0,1,0,2,0,1 | F,0,0,1,0,2,0,1 @ F,0,0,1,0,2,0,1 @ F,0,0,1,0,2,0,1 @ F,0,0,1,0,2,0,1 | F,0,0,1,0,2,0,1 @ F,0,0,1,0,2,0,1 @ F,0,0,1,0,2,0,1 @ F,0,0,1,0,2,0,1 @ F,0,0,1,0,2,0,1 @ F,0,0,1,0,2,0,1 | F,0,0,1,0,2,0,1 @ F,0,0,1,0,2,0,1 @ F,0,0,1,0,2,0,1 @ F,0,0,1,0,2,0,1 @ F,0,0,1,0,2,0,1 @ F,0,0,1,0,2,0,1 | F,0,0,1,0,2,0,1 @ F,0,0,1,0,2,0,1 @ F,0,0,1,0,2,0,1 @ F,0,0,1,0,2,0,1 @ F,0,0,1,0,2,0,1 | F,0,0,1,0,2,0,1 @ F,0,0,1,0,2,0,1 @ F,0,0,1,0,2,0,1 @ F,0,0,1,0,2,0,1 @ F,0,0,1,0,2,0,1 | F,0,0,1,0,2,0,1 @ F,0,0,1,0,2,0,1 @ F,0,0,1,0,2,0,1 @ F,0,0,1,0,2,0,1 @ F,0,0,1,0,2,0,1 @ F,0,0,1,0,2,0,1 | F,0,0,1,0,2,0,1 @ F,0,0,1,0,2,0,1 @ F,0,0,1,0,2,0,1 @ F,0,0,1,0,2,0,1 @ F,0,0,1,0,2,0,1 @ F,0,0,1,0,2,0,1 @ F,0,0,1,0,2,0,1 @ F,0,0,1,0,2,0,1"
       lpeversion="1"
       is_visible="true"
       id="path-effect871"
       effect="fillet_chamfer" />
    <inkscape:path-effect
       hide_knots="false"
       only_selected="false"
       apply_with_radius="true"
       apply_no_radius="true"
       use_knot_distance="true"
       flexible="false"
       chamfer_steps="1"
       radius="4"
       mode="F"
       method="auto"
       unit="px"
       satellites_param="F,0,0,1,0,4,0,1 @ F,0,0,1,0,4,0,1 @ F,0,0,1,0,4,0,1 @ F,0,0,1,0,4,0,1 @ F,0,0,1,0,4,0,1 @ F,0,0,1,0,4,0,1 @ F,0,0,1,0,4,0,1 @ F,0,0,1,0,4,0,1 @ F,0,0,1,0,4,0,1 @ F,0,0,1,0,4,0,1 @ F,0,0,1,0,4,0,1 @ F,0,0,1,0,4,0,1 @ F,0,0,1,0,4,0,1 @ F,0,0,1,0,4,0,1 @ F,0,0,1,0,4,0,1 @ F,0,0,1,0,4,0,1 @ F,0,0,1,0,4,0,1 @ F,0,0,1,0,4,0,1 @ F,0,0,1,0,4,0,1 @ F,0,0,1,0,4,0,1 @ F,0,0,1,0,4,0,1 @ F,0,0,1,0,4,0,1 @ F,0,0,1,0,4,0,1 @ F,0,0,1,0,4,0,1 @ F,0,0,1,0,4,0,1 @ F,0,0,1,0,4,0,1 @ F,0,0,1,0,4,0,1 @ F,0,0,1,0,4,0,1 @ F,0,0,1,0,4,0,1 @ F,0,0,1,0,4,0,1 @ F,0,0,1,0,4,0,1 @ F,0,0,1,0,4,0,1 @ F,0,0,1,0,4,0,1 @ F,0,0,1,0,4,0,1 @ F,0,0,1,0,4,0,1 @ F,0,0,1,0,4,0,1 @ F,0,0,1,0,4,0,1 @ F,0,0,1,0,4,0,1 @ F,0,0,1,0,4,0,1 @ F,0,0,1,0,4,0,1 @ F,0,0,1,0,4,0,1 @ F,0,0,1,0,4,0,1 @ F,0,0,1,0,4,0,1 @ F,0,0,1,0,4,0,1 @ F,0,0,1,0,4,0,1 @ F,0,0,1,0,4,0,1 @ F,0,0,1,0,4,0,1 @ F,0,0,1,0,4,0,1 @ F,0,0,1,0,4,0,1 @ F,0,0,1,0,4,0,1 @ F,0,0,1,0,4,0,1 @ F,0,0,1,0,4,0,1 @ F,0,0,1,0,4,0,1 @ F,0,0,1,0,4,0,1 @ F,0,0,1,0,4,0,1 @ F,0,0,1,0,4,0,1 @ F,0,0,1,0,4,0,1 @ F,0,0,1,0,4,0,1 @ F,0,0,1,0,4,0,1 @ F,0,0,1,0,4,0,1 @ F,0,0,1,0,4,0,1 @ F,0,0,1,0,4,0,1 @ F,0,0,1,0,4,0,1 @ F,0,0,1,0,4,0,1 @ F,0,0,1,0,4,0,1 @ F,0,0,1,0,4,0,1 @ F,0,0,1,0,4,0,1 @ F,0,0,1,0,4,0,1 @ F,0,0,1,0,4,0,1 @ F,0,0,1,0,4,0,1 @ F,0,0,1,0,4,0,1 @ F,0,0,1,0,4,0,1 @ F,0,0,1,0,4,0,1 @ F,0,0,1,0,4,0,1 @ F,0,0,1,0,4,0,1 @ F,0,0,1,0,4,0,1 @ F,0,0,1,0,4,0,1 @ F,0,0,1,0,4,0,1 @ F,0,0,1,0,4,0,1 @ F,0,0,1,0,4,0,1 @ F,0,0,1,0,4,0,1 @ F,0,0,1,0,4,0,1 @ F,0,0,1,0,4,0,1 @ F,0,0,1,0,4,0,1 @ F,0,0,1,0,4,0,1 @ F,0,0,1,0,4,0,1 @ F,0,0,1,0,4,0,1 @ F,0,0,1,0,4,0,1 @ F,0,0,1,0,4,0,1 @ F,0,0,1,0,4,0,1 @ F,0,0,1,0,4,0,1 @ F,0,0,1,0,4,0,1 @ F,0,0,1,0,4,0,1 @ F,0,0,1,0,4,0,1 @ F,0,0,1,0,4,0,1 @ F,0,0,1,0,4,0,1 @ F,0,0,1,0,4,0,1 @ F,0,0,1,0,4,0,1 @ F,0,0,1,0,4,0,1 @ F,0,0,1,0,4,0,1 @ F,0,0,1,0,4,0,1 @ F,0,0,1,0,4,0,1 @ F,0,0,1,0,4,0,1 @ F,0,0,1,0,4,0,1 @ F,0,0,1,0,4,0,1 @ F,0,0,1,0,4,0,1 @ F,0,0,1,0,4,0,1 @ F,0,0,1,0,4,0,1 @ F,0,0,1,0,4,0,1 @ F,0,0,1,0,4,0,1 @ F,0,0,1,0,4,0,1 @ F,0,0,1,0,4,0,1 @ F,0,0,1,0,4,0,1 @ F,0,0,1,0,4,0,1 @ F,0,0,1,0,4,0,1 @ F,0,0,1,0,4,0,1 @ F,0,0,1,0,4,0,1 @ F,0,0,1,0,4,0,1 @ F,0,0,1,0,4,0,1 @ F,0,0,1,0,4,0,1 @ F,0,0,1,0,4,0,1 @ F,0,0,1,0,4,0,1 @ F,0,0,1,0,4,0,1 @ F,0,0,1,0,4,0,1 @ F,0,0,1,0,4,0,1 @ F,0,0,1,0,4,0,1 @ F,0,0,1,0,4,0,1 @ F,0,0,1,0,4,0,1 @ F,0,0,1,0,4,0,1 @ F,0,0,1,0,4,0,1 @ F,0,0,1,0,4,0,1 @ F,0,0,1,0,4,0,1 @ F,0,0,1,0,4,0,1 @ F,0,0,1,0,4,0,1 @ F,0,0,1,0,4,0,1 @ F,0,0,1,0,4,0,1 @ F,0,0,1,0,4,0,1 @ F,0,0,1,0,4,0,1 @ F,0,0,1,0,4,0,1 @ F,0,0,1,0,4,0,1 @ F,0,0,1,0,4,0,1 @ F,0,0,1,0,4,0,1 @ F,0,0,1,0,4,0,1 @ F,0,0,1,0,4,0,1 @ F,0,0,1,0,4,0,1 @ F,0,0,1,0,4,0,1 @ F,0,0,1,0,4,0,1 @ F,0,0,1,0,4,0,1 @ F,0,0,1,0,4,0,1 @ F,0,0,1,0,4,0,1 @ F,0,0,1,0,4,0,1 @ F,0,0,1,0,4,0,1 @ F,0,0,1,0,4,0,1 @ F,0,0,1,0,4,0,1 @ F,0,0,1,0,4,0,1 @ F,0,0,1,0,4,0,1 @ F,0,0,1,0,4,0,1 @ F,0,0,1,0,4,0,1 @ F,0,0,1,0,4,0,1 @ F,0,0,1,0,4,0,1 @ F,0,0,1,0,4,0,1 @ F,0,0,1,0,4,0,1 @ F,0,0,1,0,4,0,1 @ F,0,0,1,0,4,0,1 @ F,0,0,1,0,4,0,1 @ F,0,0,1,0,4,0,1 @ F,0,0,1,0,4,0,1 @ F,0,0,1,0,4,0,1 @ F,0,0,1,0,4,0,1 @ F,0,0,1,0,4,0,1 @ F,0,0,1,0,4,0,1 @ F,0,0,1,0,4,0,1 @ F,0,0,1,0,4,0,1 @ F,0,0,1,0,4,0,1 @ F,0,0,1,0,4,0,1 @ F,0,0,1,0,4,0,1 @ F,0,0,1,0,4,0,1 @ F,0,0,1,0,4,0,1 @ F,0,0,1,0,4,0,1 @ F,0,0,1,0,4,0,1 @ F,0,0,1,0,4,0,1 @ F,0,0,1,0,4,0,1 @ F,0,0,1,0,4,0,1 @ F,0,0,1,0,4,0,1 @ F,0,0,1,0,4,0,1 @ F,0,0,1,0,4,0,1 @ F,0,0,1,0,4,0,1 @ F,0,0,1,0,4,0,1 @ F,0,0,1,0,4,0,1 @ F,0,0,1,0,4,0,1 @ F,0,0,1,0,4,0,1 @ F,0,0,1,0,4,0,1 @ F,0,0,1,0,4,0,1 @ F,0,0,1,0,4,0,1 @ F,0,0,1,0,4,0,1 @ F,0,0,1,0,4,0,1 @ F,0,0,1,0,4,0,1 @ F,0,0,1,0,4,0,1 @ F,0,0,1,0,4,0,1 @ F,0,0,1,0,4,0,1 @ F,0,0,1,0,4,0,1 @ F,0,0,1,0,4,0,1 @ F,0,0,1,0,4,0,1 @ F,0,0,1,0,4,0,1 @ F,0,0,1,0,4,0,1 @ F,0,0,1,0,4,0,1 @ F,0,0,1,0,4,0,1 @ F,0,0,1,0,4,0,1 @ F,0,0,1,0,4,0,1 @ F,0,0,1,0,4,0,1 @ F,0,0,1,0,4,0,1 @ F,0,0,1,0,4,0,1 @ F,0,0,1,0,4,0,1 @ F,0,0,1,0,4,0,1 @ F,0,0,1,0,4,0,1 @ F,0,0,1,0,4,0,1 @ F,0,0,1,0,4,0,1 @ F,0,0,1,0,4,0,1 @ F,0,0,1,0,4,0,1 @ F,0,0,1,0,4,0,1 @ F,0,0,1,0,4,0,1 @ F,0,0,1,0,4,0,1 @ F,0,0,1,0,4,0,1 @ F,0,0,1,0,4,0,1 @ F,0,0,1,0,4,0,1 @ F,0,0,1,0,4,0,1 @ F,0,0,1,0,4,0,1 @ F,0,0,1,0,4,0,1 @ F,0,0,1,0,4,0,1 @ F,0,0,1,0,4,0,1 @ F,0,0,1,0,4,0,1 @ F,0,0,1,0,4,0,1 @ F,0,0,1,0,4,0,1 @ F,0,0,1,0,4,0,1 @ F,0,0,1,0,4,0,1 @ F,0,0,1,0,4,0,1 @ F,0,0,1,0,4,0,1 @ F,0,0,1,0,4,0,1 @ F,0,0,1,0,4,0,1 @ F,0,0,1,0,4,0,1 @ F,0,0,1,0,4,0,1 @ F,0,0,1,0,4,0,1 @ F,0,0,1,0,4,0,1 @ F,0,0,1,0,4,0,1 @ F,0,0,1,0,4,0,1 @ F,0,0,1,0,4,0,1 | F,0,0,1,0,4,0,1 @ F,0,0,1,0,4,0,1 @ F,0,0,1,0,4,0,1 @ F,0,0,1,0,4,0,1 @ F,0,0,1,0,4,0,1 @ F,0,0,1,0,4,0,1 @ F,0,0,1,0,4,0,1 | F,0,0,1,0,4,0,1 @ F,0,0,1,0,4,0,1 @ F,0,0,1,0,4,0,1 @ F,0,0,1,0,4,0,1 @ F,0,0,1,0,4,0,1 @ F,0,0,1,0,4,0,1 @ F,0,0,1,0,4,0,1 | F,0,0,1,0,4,0,1 @ F,0,0,1,0,4,0,1 @ F,0,0,1,0,4,0,1 @ F,0,0,1,0,4,0,1 @ F,0,0,1,0,4,0,1 | F,0,0,1,0,4,0,1 @ F,0,0,1,0,4,0,1 @ F,0,0,1,0,4,0,1 @ F,0,0,1,0,4,0,1 @ F,0,0,1,0,4,0,1 | F,0,0,1,0,4,0,1 @ F,0,0,1,0,4,0,1 @ F,0,0,1,0,4,0,1 @ F,0,0,1,0,4,0,1 | F,0,0,1,0,4,0,1 @ F,0,0,1,0,4,0,1 @ F,0,0,1,0,4,0,1 @ F,0,0,1,0,4,0,1 | F,0,0,1,0,4,0,1 @ F,0,0,1,0,4,0,1 @ F,0,0,1,0,4,0,1 @ F,0,0,1,0,4,0,1 @ F,0,0,1,0,4,0,1 @ F,0,0,1,0,4,0,1 | F,0,0,1,0,4,0,1 @ F,0,0,1,0,4,0,1 @ F,0,0,1,0,4,0,1 @ F,0,0,1,0,4,0,1 @ F,0,0,1,0,4,0,1 @ F,0,0,1,0,4,0,1 | F,0,0,1,0,4,0,1 @ F,0,0,1,0,4,0,1 @ F,0,0,1,0,4,0,1 @ F,0,0,1,0,4,0,1 @ F,0,0,1,0,4,0,1 | F,0,0,1,0,4,0,1 @ F,0,0,1,0,4,0,1 @ F,0,0,1,0,4,0,1 @ F,0,0,1,0,4,0,1 @ F,0,0,1,0,4,0,1 | F,0,0,1,0,4,0,1 @ F,0,0,1,0,4,0,1 @ F,0,0,1,0,4,0,1 @ F,0,0,1,0,4,0,1 @ F,0,0,1,0,4,0,1 @ F,0,0,1,0,4,0,1 | F,0,0,1,0,4,0,1 @ F,0,0,1,0,4,0,1 @ F,0,0,1,0,4,0,1 @ F,0,0,1,0,4,0,1 @ F,0,0,1,0,4,0,1 @ F,0,0,1,0,4,0,1 @ F,0,0,1,0,4,0,1 @ F,0,0,1,0,4,0,1"
       lpeversion="1"
       is_visible="true"
       id="path-effect869"
       effect="fillet_chamfer" />
    <inkscape:path-effect
       hide_knots="false"
       only_selected="false"
       apply_with_radius="true"
       apply_no_radius="true"
       use_knot_distance="true"
       flexible="false"
       chamfer_steps="1"
       radius="8"
       mode="F"
       method="auto"
       unit="px"
       satellites_param="F,0,0,1,0,8,0,1 @ F,0,0,1,0,8,0,1 @ F,0,0,1,0,8,0,1 @ F,0,0,1,0,8,0,1 @ F,0,0,1,0,8,0,1 @ F,0,0,1,0,8,0,1 @ F,0,0,1,0,8,0,1 @ F,0,0,1,0,8,0,1 @ F,0,0,1,0,8,0,1 @ F,0,0,1,0,8,0,1 @ F,0,0,1,0,8,0,1 @ F,0,0,1,0,8,0,1 @ F,0,0,1,0,8,0,1 @ F,0,0,1,0,8,0,1 @ F,0,0,1,0,8,0,1 @ F,0,0,1,0,8,0,1 @ F,0,0,1,0,8,0,1 @ F,0,0,1,0,8,0,1 @ F,0,0,1,0,8,0,1 @ F,0,0,1,0,8,0,1 @ F,0,0,1,0,8,0,1 @ F,0,0,1,0,8,0,1 @ F,0,0,1,0,8,0,1 @ F,0,0,1,0,8,0,1 @ F,0,0,1,0,8,0,1 @ F,0,0,1,0,8,0,1 @ F,0,0,1,0,8,0,1 @ F,0,0,1,0,8,0,1 @ F,0,0,1,0,8,0,1 @ F,0,0,1,0,8,0,1 @ F,0,0,1,0,8,0,1 @ F,0,0,1,0,8,0,1 @ F,0,0,1,0,8,0,1 @ F,0,0,1,0,8,0,1 @ F,0,0,1,0,8,0,1 @ F,0,0,1,0,8,0,1 @ F,0,0,1,0,8,0,1 @ F,0,0,1,0,8,0,1 @ F,0,0,1,0,8,0,1 @ F,0,0,1,0,8,0,1 @ F,0,0,1,0,8,0,1 @ F,0,0,1,0,8,0,1 @ F,0,0,1,0,8,0,1 @ F,0,0,1,0,8,0,1 @ F,0,0,1,0,8,0,1 @ F,0,0,1,0,8,0,1 @ F,0,0,1,0,8,0,1 @ F,0,0,1,0,8,0,1 @ F,0,0,1,0,8,0,1 @ F,0,0,1,0,8,0,1 @ F,0,0,1,0,8,0,1 @ F,0,0,1,0,8,0,1 @ F,0,0,1,0,8,0,1 @ F,0,0,1,0,8,0,1 @ F,0,0,1,0,8,0,1 @ F,0,0,1,0,8,0,1 @ F,0,0,1,0,8,0,1 @ F,0,0,1,0,8,0,1 @ F,0,0,1,0,8,0,1 @ F,0,0,1,0,8,0,1 @ F,0,0,1,0,8,0,1 @ F,0,0,1,0,8,0,1 @ F,0,0,1,0,8,0,1 @ F,0,0,1,0,8,0,1 @ F,0,0,1,0,8,0,1 @ F,0,0,1,0,8,0,1 @ F,0,0,1,0,8,0,1 @ F,0,0,1,0,8,0,1 @ F,0,0,1,0,8,0,1 @ F,0,0,1,0,8,0,1 @ F,0,0,1,0,8,0,1 @ F,0,0,1,0,8,0,1 @ F,0,0,1,0,8,0,1 @ F,0,0,1,0,8,0,1 @ F,0,0,1,0,8,0,1 @ F,0,0,1,0,8,0,1 @ F,0,0,1,0,8,0,1 @ F,0,0,1,0,8,0,1 @ F,0,0,1,0,8,0,1 @ F,0,0,1,0,8,0,1 @ F,0,0,1,0,8,0,1 @ F,0,0,1,0,8,0,1 @ F,0,0,1,0,8,0,1 @ F,0,0,1,0,8,0,1 @ F,0,0,1,0,8,0,1 @ F,0,0,1,0,8,0,1 @ F,0,0,1,0,8,0,1 @ F,0,0,1,0,8,0,1 @ F,0,0,1,0,8,0,1 @ F,0,0,1,0,8,0,1 @ F,0,0,1,0,8,0,1 @ F,0,0,1,0,8,0,1 @ F,0,0,1,0,8,0,1 @ F,0,0,1,0,8,0,1 @ F,0,0,1,0,8,0,1 @ F,0,0,1,0,8,0,1 @ F,0,0,1,0,8,0,1 @ F,0,0,1,0,8,0,1 @ F,0,0,1,0,8,0,1 @ F,0,0,1,0,8,0,1 @ F,0,0,1,0,8,0,1 @ F,0,0,1,0,8,0,1 @ F,0,0,1,0,8,0,1 @ F,0,0,1,0,8,0,1 @ F,0,0,1,0,8,0,1 @ F,0,0,1,0,8,0,1 @ F,0,0,1,0,8,0,1 @ F,0,0,1,0,8,0,1 @ F,0,0,1,0,8,0,1 @ F,0,0,1,0,8,0,1 @ F,0,0,1,0,8,0,1 @ F,0,0,1,0,8,0,1 @ F,0,0,1,0,8,0,1 @ F,0,0,1,0,8,0,1 @ F,0,0,1,0,8,0,1 @ F,0,0,1,0,8,0,1 @ F,0,0,1,0,8,0,1 @ F,0,0,1,0,8,0,1 @ F,0,0,1,0,8,0,1 @ F,0,0,1,0,8,0,1 @ F,0,0,1,0,8,0,1 @ F,0,0,1,0,8,0,1 @ F,0,0,1,0,8,0,1 @ F,0,0,1,0,8,0,1 @ F,0,0,1,0,8,0,1 @ F,0,0,1,0,8,0,1 @ F,0,0,1,0,8,0,1 @ F,0,0,1,0,8,0,1 @ F,0,0,1,0,8,0,1 @ F,0,0,1,0,8,0,1 @ F,0,0,1,0,8,0,1 @ F,0,0,1,0,8,0,1 @ F,0,0,1,0,8,0,1 @ F,0,0,1,0,8,0,1 @ F,0,0,1,0,8,0,1 @ F,0,0,1,0,8,0,1 @ F,0,0,1,0,8,0,1 @ F,0,0,1,0,8,0,1 @ F,0,0,1,0,8,0,1 @ F,0,0,1,0,8,0,1 @ F,0,0,1,0,8,0,1 @ F,0,0,1,0,8,0,1 @ F,0,0,1,0,8,0,1 @ F,0,0,1,0,8,0,1 @ F,0,0,1,0,8,0,1 @ F,0,0,1,0,8,0,1 @ F,0,0,1,0,8,0,1 @ F,0,0,1,0,8,0,1 @ F,0,0,1,0,8,0,1 @ F,0,0,1,0,8,0,1 @ F,0,0,1,0,8,0,1 @ F,0,0,1,0,8,0,1 @ F,0,0,1,0,8,0,1 @ F,0,0,1,0,8,0,1 @ F,0,0,1,0,8,0,1 @ F,0,0,1,0,8,0,1 @ F,0,0,1,0,8,0,1 @ F,0,0,1,0,8,0,1 @ F,0,0,1,0,8,0,1 @ F,0,0,1,0,8,0,1 @ F,0,0,1,0,8,0,1 @ F,0,0,1,0,8,0,1 @ F,0,0,1,0,8,0,1 @ F,0,0,1,0,8,0,1 @ F,0,0,1,0,8,0,1 @ F,0,0,1,0,8,0,1 @ F,0,0,1,0,8,0,1 @ F,0,0,1,0,8,0,1 @ F,0,0,1,0,8,0,1 @ F,0,0,1,0,8,0,1 @ F,0,0,1,0,8,0,1 @ F,0,0,1,0,8,0,1 @ F,0,0,1,0,8,0,1 @ F,0,0,1,0,8,0,1 @ F,0,0,1,0,8,0,1 @ F,0,0,1,0,8,0,1 @ F,0,0,1,0,8,0,1 @ F,0,0,1,0,8,0,1 @ F,0,0,1,0,8,0,1 @ F,0,0,1,0,8,0,1 @ F,0,0,1,0,8,0,1 @ F,0,0,1,0,8,0,1 @ F,0,0,1,0,8,0,1 @ F,0,0,1,0,8,0,1 @ F,0,0,1,0,8,0,1 @ F,0,0,1,0,8,0,1 @ F,0,0,1,0,8,0,1 @ F,0,0,1,0,8,0,1 @ F,0,0,1,0,8,0,1 @ F,0,0,1,0,8,0,1 @ F,0,0,1,0,8,0,1 @ F,0,0,1,0,8,0,1 @ F,0,0,1,0,8,0,1 @ F,0,0,1,0,8,0,1 @ F,0,0,1,0,8,0,1 @ F,0,0,1,0,8,0,1 @ F,0,0,1,0,8,0,1 @ F,0,0,1,0,8,0,1 @ F,0,0,1,0,8,0,1 @ F,0,0,1,0,8,0,1 @ F,0,0,1,0,8,0,1 @ F,0,0,1,0,8,0,1 @ F,0,0,1,0,8,0,1 @ F,0,0,1,0,8,0,1 @ F,0,0,1,0,8,0,1 @ F,0,0,1,0,8,0,1 @ F,0,0,1,0,8,0,1 @ F,0,0,1,0,8,0,1 @ F,0,0,1,0,8,0,1 @ F,0,0,1,0,8,0,1 @ F,0,0,1,0,8,0,1 @ F,0,0,1,0,8,0,1 @ F,0,0,1,0,8,0,1 @ F,0,0,1,0,8,0,1 @ F,0,0,1,0,8,0,1 @ F,0,0,1,0,8,0,1 @ F,0,0,1,0,8,0,1 @ F,0,0,1,0,8,0,1 @ F,0,0,1,0,8,0,1 @ F,0,0,1,0,8,0,1 @ F,0,0,1,0,8,0,1 @ F,0,0,1,0,8,0,1 @ F,0,0,1,0,8,0,1 @ F,0,0,1,0,8,0,1 @ F,0,0,1,0,8,0,1 @ F,0,0,1,0,8,0,1 @ F,0,0,1,0,8,0,1 @ F,0,0,1,0,8,0,1 @ F,0,0,1,0,8,0,1 @ F,0,0,1,0,8,0,1 @ F,0,0,1,0,8,0,1 @ F,0,0,1,0,8,0,1 @ F,0,0,1,0,8,0,1 @ F,0,0,1,0,8,0,1 @ F,0,0,1,0,8,0,1 @ F,0,0,1,0,8,0,1 @ F,0,0,1,0,8,0,1 @ F,0,0,1,0,8,0,1 @ F,0,0,1,0,8,0,1 @ F,0,0,1,0,8,0,1 @ F,0,0,1,0,8,0,1 @ F,0,0,1,0,8,0,1 @ F,0,0,1,0,8,0,1 @ F,0,0,1,0,8,0,1 @ F,0,0,1,0,8,0,1 @ F,0,0,1,0,8,0,1 | F,0,0,1,0,8,0,1 @ F,0,0,1,0,8,0,1 @ F,0,0,1,0,8,0,1 @ F,0,0,1,0,8,0,1 @ F,0,0,1,0,8,0,1 @ F,0,0,1,0,8,0,1 @ F,0,0,1,0,8,0,1 | F,0,0,1,0,8,0,1 @ F,0,0,1,0,8,0,1 @ F,0,0,1,0,8,0,1 @ F,0,0,1,0,8,0,1 @ F,0,0,1,0,8,0,1 @ F,0,0,1,0,8,0,1 @ F,0,0,1,0,8,0,1 | F,0,0,1,0,8,0,1 @ F,0,0,1,0,8,0,1 @ F,0,0,1,0,8,0,1 @ F,0,0,1,0,8,0,1 @ F,0,0,1,0,8,0,1 | F,0,0,1,0,8,0,1 @ F,0,0,1,0,8,0,1 @ F,0,0,1,0,8,0,1 @ F,0,0,1,0,8,0,1 @ F,0,0,1,0,8,0,1 | F,0,0,1,0,8,0,1 @ F,0,0,1,0,8,0,1 @ F,0,0,1,0,8,0,1 @ F,0,0,1,0,8,0,1 | F,0,0,1,0,8,0,1 @ F,0,0,1,0,8,0,1 @ F,0,0,1,0,8,0,1 @ F,0,0,1,0,8,0,1 | F,0,0,1,0,8,0,1 @ F,0,0,1,0,8,0,1 @ F,0,0,1,0,8,0,1 @ F,0,0,1,0,8,0,1 @ F,0,0,1,0,8,0,1 @ F,0,0,1,0,8,0,1 | F,0,0,1,0,8,0,1 @ F,0,0,1,0,8,0,1 @ F,0,0,1,0,8,0,1 @ F,0,0,1,0,8,0,1 @ F,0,0,1,0,8,0,1 @ F,0,0,1,0,8,0,1 | F,0,0,1,0,8,0,1 @ F,0,0,1,0,8,0,1 @ F,0,0,1,0,8,0,1 @ F,0,0,1,0,8,0,1 @ F,0,0,1,0,8,0,1 | F,0,0,1,0,8,0,1 @ F,0,0,1,0,8,0,1 @ F,0,0,1,0,8,0,1 @ F,0,0,1,0,8,0,1 @ F,0,0,1,0,8,0,1 | F,0,0,1,0,8,0,1 @ F,0,0,1,0,8,0,1 @ F,0,0,1,0,8,0,1 @ F,0,0,1,0,8,0,1 @ F,0,0,1,0,8,0,1 @ F,0,0,1,0,8,0,1 | F,0,0,1,0,8,0,1 @ F,0,0,1,0,8,0,1 @ F,0,0,1,0,8,0,1 @ F,0,0,1,0,8,0,1 @ F,0,0,1,0,8,0,1 @ F,0,0,1,0,8,0,1 @ F,0,0,1,0,8,0,1 @ F,0,0,1,0,8,0,1"
       lpeversion="1"
       is_visible="true"
       id="path-effect867"
       effect="fillet_chamfer" />
    <inkscape:path-effect
       hide_knots="false"
       only_selected="false"
       apply_with_radius="true"
       apply_no_radius="true"
       use_knot_distance="true"
       flexible="false"
       chamfer_steps="1"
       radius="0"
       mode="F"
       method="auto"
       unit="px"
       satellites_param="F,0,0,1,0,0,0,1 @ F,0,0,1,0,0,0,1 @ F,0,0,1,0,0,0,1 @ F,0,0,1,0,0,0,1 @ F,0,0,1,0,0,0,1 @ F,0,0,1,0,0,0,1 @ F,0,0,1,0,0,0,1 @ F,0,0,1,0,0,0,1 @ F,0,0,1,0,0,0,1 @ F,0,0,1,0,0,0,1 @ F,0,0,1,0,0,0,1 @ F,0,0,1,0,0,0,1 @ F,0,0,1,0,0,0,1 @ F,0,0,1,0,0,0,1 @ F,0,0,1,0,0,0,1 @ F,0,0,1,0,0,0,1 @ F,0,0,1,0,0,0,1 @ F,0,0,1,0,0,0,1 @ F,0,0,1,0,0,0,1 @ F,0,0,1,0,0,0,1 @ F,0,0,1,0,0,0,1 @ F,0,0,1,0,0,0,1 @ F,0,0,1,0,0,0,1 @ F,0,0,1,0,0,0,1 @ F,0,0,1,0,0,0,1 @ F,0,0,1,0,0,0,1 @ F,0,0,1,0,0,0,1 @ F,0,0,1,0,0,0,1"
       lpeversion="1"
       is_visible="true"
       id="path-effect864"
       effect="fillet_chamfer" />
    <inkscape:path-effect
       effect="fillet_chamfer"
       id="path-effect1068"
       is_visible="true"
       lpeversion="1"
       satellites_param="F,0,0,1,0,4,0,1 @ F,0,0,1,0,4,0,1 @ F,0,0,1,0,4,0,1 @ F,0,0,1,0,4,0,1 @ F,0,0,1,0,4,0,1 @ F,0,0,1,0,4,0,1 @ F,0,0,1,0,4,0,1 @ F,0,0,1,0,4,0,1 @ F,0,0,1,0,4,0,1 @ F,0,0,1,0,4,0,1 @ F,0,0,1,0,4,0,1 @ F,0,0,1,0,4,0,1"
       unit="px"
       method="auto"
       mode="F"
       radius="4"
       chamfer_steps="1"
       flexible="false"
       use_knot_distance="true"
       apply_no_radius="true"
       apply_with_radius="true"
       only_selected="false"
       hide_knots="false" />
    <inkscape:path-effect
       effect="fillet_chamfer"
       id="path-effect1066"
       is_visible="true"
       lpeversion="1"
       satellites_param="F,0,0,1,0,4,0,1 @ F,0,0,1,0,4,0,1 @ F,0,0,1,0,4,0,1 @ F,0,0,1,0,4,0,1 @ F,0,0,1,0,4,0,1 @ F,0,0,1,0,4,0,1 @ F,0,0,1,0,4,0,1 @ F,0,0,1,0,4,0,1 @ F,0,0,1,0,4,0,1 @ F,0,0,1,0,4,0,1 @ F,0,0,1,0,4,0,1 @ F,0,0,1,0,4,0,1 @ F,0,0,1,0,4,0,1 @ F,0,0,1,0,4,0,1 @ F,0,0,1,0,4,0,1 @ F,0,0,1,0,4,0,1 @ F,0,0,1,0,4,0,1 @ F,0,0,1,0,4,0,1 | F,0,0,1,0,4,0,1 @ F,0,0,1,0,4,0,1 @ F,0,0,1,0,4,0,1 @ F,0,0,1,0,4,0,1 @ F,0,0,1,0,4,0,1 @ F,0,0,1,0,4,0,1 @ F,0,0,1,0,4,0,1 @ F,0,0,1,0,4,0,1 @ F,0,0,1,0,4,0,1 @ F,0,0,1,0,4,0,1 @ F,0,0,1,0,4,0,1 @ F,0,0,1,0,4,0,1"
       unit="px"
       method="auto"
       mode="F"
       radius="4"
       chamfer_steps="1"
       flexible="false"
       use_knot_distance="true"
       apply_no_radius="true"
       apply_with_radius="true"
       only_selected="false"
       hide_knots="false" />
    <inkscape:path-effect
       effect="fillet_chamfer"
       id="path-effect1064"
       is_visible="true"
       lpeversion="1"
       satellites_param="F,0,0,1,0,8,0,1 @ F,0,0,1,0,8,0,1 @ F,0,0,1,0,8,0,1 @ F,0,0,1,0,8,0,1 @ F,0,0,1,0,8,0,1 @ F,0,0,1,0,8,0,1 @ F,0,0,1,0,8,0,1 @ F,0,0,1,0,8,0,1 @ F,0,0,1,0,8,0,1 @ F,0,0,1,0,8,0,1 @ F,0,0,1,0,8,0,1 @ F,0,0,1,0,8,0,1 @ F,0,0,1,0,8,0,1 @ F,0,0,1,0,8,0,1 @ F,0,0,1,0,8,0,1 @ F,0,0,1,0,8,0,1 @ F,0,0,1,0,8,0,1 @ F,0,0,1,0,8,0,1 | F,0,0,1,0,8,0,1 @ F,0,0,1,0,8,0,1 @ F,0,0,1,0,8,0,1 @ F,0,0,1,0,8,0,1 @ F,0,0,1,0,8,0,1 @ F,0,0,1,0,8,0,1 @ F,0,0,1,0,8,0,1 @ F,0,0,1,0,8,0,1 @ F,0,0,1,0,8,0,1 @ F,0,0,1,0,8,0,1 @ F,0,0,1,0,8,0,1 @ F,0,0,1,0,8,0,1"
       unit="px"
       method="auto"
       mode="F"
       radius="8"
       chamfer_steps="1"
       flexible="false"
       use_knot_distance="true"
       apply_no_radius="true"
       apply_with_radius="true"
       only_selected="false"
       hide_knots="false" />
    <inkscape:path-effect
       effect="fillet_chamfer"
       id="path-effect1060"
       is_visible="true"
       lpeversion="1"
       satellites_param="F,0,0,1,0,0,0,1 @ F,0,0,1,0,0,0,1 @ F,0,0,1,0,0,0,1 @ F,0,0,1,0,0,0,1 @ F,0,0,1,0,0,0,1 @ F,0,0,1,0,0,0,1 @ F,0,0,1,0,0,0,1 @ F,0,0,1,0,0,0,1 @ F,0,0,1,0,0,0,1 @ F,0,0,1,0,0,0,1 @ F,0,0,1,0,0,0,1 @ F,0,0,1,0,0,0,1 @ F,0,0,1,0,0,0,1 @ F,0,0,1,0,0,0,1 @ F,0,0,1,0,0,0,1 @ F,0,0,1,0,0,0,1 @ F,0,0,1,0,0,0,1 @ F,0,0,1,0,0,0,1 | F,0,0,1,0,0,0,1 @ F,0,0,1,0,0,0,1 @ F,0,0,1,0,0,0,1 @ F,0,0,1,0,0,0,1 @ F,0,0,1,0,0,0,1 @ F,0,0,1,0,0,0,1 @ F,0,0,1,0,0,0,1 @ F,0,0,1,0,0,0,1 @ F,0,0,1,0,0,0,1 @ F,0,0,1,0,0,0,1 @ F,0,0,1,0,0,0,1 @ F,0,0,1,0,0,0,1"
       unit="px"
       method="auto"
       mode="F"
       radius="16"
       chamfer_steps="1"
       flexible="false"
       use_knot_distance="true"
       apply_no_radius="true"
       apply_with_radius="true"
       only_selected="false"
       hide_knots="false" />
    <inkscape:path-effect
       effect="skeletal"
       id="path-effect1040"
       is_visible="true"
       lpeversion="1"
       pattern="M 0,5 C 0,2.24 2.24,0 5,0 7.76,0 10,2.24 10,5 10,7.76 7.76,10 5,10 2.24,10 0,7.76 0,5 Z"
       copytype="single_stretched"
       prop_scale="1"
       scale_y_rel="false"
       spacing="0"
       normal_offset="0"
       tang_offset="0"
       prop_units="false"
       vertical_pattern="false"
       hide_knot="false"
       fuse_tolerance="0" />
    <inkscape:path-effect
       effect="fillet_chamfer"
       id="path-effect1036"
       is_visible="true"
       lpeversion="1"
       satellites_param="F,0,0,1,0,0,0,1 @ F,0,0,1,0,0,0,1 @ F,0,0,1,0,0,0,1 @ F,0,0,1,0,0,0,1 @ F,0,0,1,0,0,0,1 @ F,0,0,1,0,0,0,1 @ F,0,0,1,0,0,0,1 @ F,0,0,1,0,0,0,1 @ F,0,0,1,0,0,0,1 @ F,0,0,1,0,0,0,1 @ F,0,0,1,0,0,0,1 @ F,0,0,1,0,0,0,1 | F,0,0,1,0,0,0,1 @ F,0,0,1,0,0,0,1 @ F,0,0,1,0,0,0,1 @ F,0,0,1,0,0,0,1 @ F,0,0,1,0,0,0,1 @ F,0,0,1,0,0,0,1 @ F,0,0,1,0,0,0,1 @ F,0,0,1,0,0,0,1 @ F,0,0,1,0,0,0,1 @ F,0,0,1,0,0,0,1 @ F,0,0,1,0,0,0,1 @ F,0,0,1,0,0,0,1"
       unit="px"
       method="auto"
       mode="F"
       radius="0"
       chamfer_steps="1"
       flexible="false"
       use_knot_distance="true"
       apply_no_radius="true"
       apply_with_radius="true"
       only_selected="false"
       hide_knots="false" />
    <inkscape:path-effect
       effect="skeletal"
       id="path-effect1013"
       is_visible="true"
       lpeversion="1"
       pattern="M 0,5 C 0,2.24 2.24,0 5,0 7.76,0 10,2.24 10,5 10,7.76 7.76,10 5,10 2.24,10 0,7.76 0,5 Z"
       copytype="single_stretched"
       prop_scale="1"
       scale_y_rel="false"
       spacing="0"
       normal_offset="0"
       tang_offset="0"
       prop_units="false"
       vertical_pattern="false"
       hide_knot="false"
       fuse_tolerance="0" />
    <inkscape:path-effect
       effect="skeletal"
       id="path-effect1009"
       is_visible="true"
       lpeversion="1"
       pattern="M 0,5 C 0,2.24 2.24,0 5,0 7.76,0 10,2.24 10,5 10,7.76 7.76,10 5,10 2.24,10 0,7.76 0,5 Z"
       copytype="single_stretched"
       prop_scale="1"
       scale_y_rel="false"
       spacing="0"
       normal_offset="0"
       tang_offset="0"
       prop_units="false"
       vertical_pattern="false"
       hide_knot="false"
       fuse_tolerance="0" />
    <inkscape:path-effect
       effect="skeletal"
       id="path-effect1005"
       is_visible="true"
       lpeversion="1"
       pattern="M 0,5 C 0,2.24 2.24,0 5,0 7.76,0 10,2.24 10,5 10,7.76 7.76,10 5,10 2.24,10 0,7.76 0,5 Z"
       copytype="single_stretched"
       prop_scale="1"
       scale_y_rel="false"
       spacing="0"
       normal_offset="0"
       tang_offset="0"
       prop_units="false"
       vertical_pattern="false"
       hide_knot="false"
       fuse_tolerance="0" />
  </defs>
  <sodipodi:namedview
     showguides="false"
     inkscape:snap-smooth-nodes="true"
     inkscape:object-paths="false"
     inkscape:snap-bbox-midpoints="false"
     inkscape:snap-bbox-edge-midpoints="true"
     inkscape:object-nodes="true"
     inkscape:snap-intersection-paths="false"
     inkscape:snap-midpoints="false"
     inkscape:bbox-nodes="false"
     inkscape:snap-bbox="true"
     inkscape:window-maximized="1"
     inkscape:window-y="-8"
     inkscape:window-x="-8"
     inkscape:window-height="1017"
     inkscape:window-width="1920"
     inkscape:snap-object-midpoints="false"
     inkscape:snap-center="true"
     showborder="false"
     units="px"
     showgrid="false"
     inkscape:document-rotation="0"
     inkscape:current-layer="layer1"
     inkscape:document-units="px"
     inkscape:cy="380.50312"
     inkscape:cx="460.13584"
     inkscape:zoom="0.70710678"
     inkscape:pageshadow="2"
     inkscape:pageopacity="0.0"
     borderopacity="1.0"
     bordercolor="#666666"
     pagecolor="#ffffff"
     id="base"
     inkscape:bbox-paths="false" />
  <metadata
     id="metadata5">
    <rdf:RDF>
      <cc:Work
         rdf:about="">
        <dc:format>image/svg+xml</dc:format>
        <dc:type
           rdf:resource="http://purl.org/dc/dcmitype/StillImage" />
        <dc:title />
      </cc:Work>
    </rdf:RDF>
  </metadata>
  <g
     id="layer1"
     inkscape:groupmode="layer"
     inkscape:label="Layer 1">
    <path
       inkscape:original-d="m 91.230682,-9.9851443 c -4.690509,0 -8.466666,3.7761333 -8.466666,8.4666655 V 11.213044 L 72.629233,5.3617213 C 70.598133,4.1890911 68.018765,4.8799277 66.846124,6.9109808 65.673493,8.9420446 66.364831,11.520939 68.3959,12.693573 l 14.368116,8.295618 V 28.7975 L 65.960908,19.096283 c -2.53881,-1.46579 -5.526704,-1.010971 -6.699332,1.020093 -1.172642,2.031054 -0.07279,4.846486 2.465998,6.312276 L 82.764016,38.574164 V 45.60836 L 72.629233,39.757037 c -2.0311,-1.172635 -4.609952,-0.481278 -5.782593,1.549777 -1.172628,2.031062 -0.481809,4.609957 1.54926,5.782592 l 14.368116,8.295617 v 6.549471 L 76.819675,72.22999 65.872539,65.909962 a 6.9280727,6.9280727 0 0 0 -6.928257,0 l -3.161564,1.825728 a 6.9283873,6.9283873 0 0 0 -3.463872,5.999634 V 86.37538 H 40.430683 L 34.758678,83.100645 V 66.509926 c 0,-2.345277 -1.888064,-4.233328 -4.233334,-4.233333 -2.345258,8e-6 -4.233322,1.888032 -4.233333,4.233333 V 78.212571 L 20.199877,74.695473 V 50.40445 c -2.2e-5,-2.931556 -1.888591,-5.291676 -4.23385,-5.291667 -2.345272,-5e-6 -4.232827,2.360094 -4.232817,5.291667 V 69.806883 L 4.9708332,65.902728 V 49.31201 c 8e-6,-2.345276 -1.887548,-4.233846 -4.23281731,-4.23385 -2.34526139,9e-6 -4.23331479,1.888551 -4.23333329,4.23385 V 61.014655 L -14.521518,54.649153 c -4.062119,-2.345267 -9.219935,-0.963068 -11.565186,3.099035 -2.345269,4.062116 -0.963599,9.219917 3.098519,11.565184 l 11.026201,6.36602 -10.134782,5.851321 c -2.031069,1.172642 -2.722407,3.752056 -1.549776,5.783112 1.172641,2.031058 3.751522,2.72139 5.782593,1.548741 l 14.3681157,-8.2951 6.7623768,3.904154 -16.8031075,9.701216 c -2.538841,1.465781 -3.639148,4.280693 -2.466518,6.311764 1.172631,2.03105 4.161031,2.48639 6.699851,1.0206 L 11.73321,89.359694 17.825344,92.876793 7.690562,98.728114 c -2.0310686,1.172641 -2.7218878,3.752056 -1.5492597,5.783106 1.1726412,2.03106 3.7515244,2.72191 5.7825927,1.54926 l 14.368116,-8.295098 5.672005,3.274738 5.944341,10.29549 -10.947135,6.32055 a 6.9282478,6.9282478 0 0 0 -3.463872,6.00015 v 3.65042 a 6.9281624,6.9281624 0 0 0 3.463872,6.00015 l 10.947135,6.32003 -5.944341,10.2955 -5.672005,3.27473 -14.368116,-8.2951 c -2.0310683,-1.17265 -4.6099515,-0.48179 -5.7825927,1.54926 -1.1726281,2.03105 -0.4818089,4.61047 1.5492597,5.78311 l 10.134782,5.85132 -6.092134,3.5171 -21.036441,-12.14551 c -2.53882,-1.46578 -5.52722,-1.01045 -6.699851,1.02061 -1.17263,2.03105 -0.07232,4.84598 2.466518,6.31175 l 16.8031075,9.70122 -6.7623768,3.90416 -14.3681157,-8.2951 c -2.031071,-1.17266 -4.609952,-0.48232 -5.782593,1.54874 -1.172631,2.03105 -0.481293,4.61047 1.549776,5.78311 l 10.134782,5.85132 -11.026201,6.36602 c -4.062118,2.34526 -5.443788,7.50358 -3.098519,11.5657 2.345251,4.0621 7.503067,5.44379 11.565186,3.09852 l 11.0262006,-6.3655 v 11.70264 c 1.85e-5,2.34531 1.8880719,4.23385 4.23333329,4.23385 2.34526931,0 4.23282531,-1.88857 4.23281731,-4.23385 v -16.59072 l 6.7623768,-3.90415 v 19.40243 c -10e-6,2.93158 1.887545,5.29168 4.232817,5.29167 2.345259,1e-5 4.233828,-2.36012 4.23385,-5.29167 v -24.29102 l 6.092134,-3.5171 v 11.70265 c 1.1e-5,2.3453 1.888075,4.23332 4.233333,4.23333 2.34527,-1e-5 4.233334,-1.88805 4.233334,-4.23333 v -16.59072 l 5.67097,-3.27422 h 11.889198 v 12.64006 a 6.9279986,6.9279986 0 0 0 3.463872,5.99963 l 3.16208,1.82521 a 6.9284124,6.9284124 0 0 0 6.92826,0 l 10.946617,-6.32003 5.944341,10.2955 v 6.54999 L 68.3959,203.87363 c -2.031069,1.17264 -2.721888,3.75153 -1.54926,5.7826 1.172641,2.03105 3.751493,2.72241 5.782593,1.54977 l 10.134783,-5.85132 v 7.0342 l -21.036442,12.14551 c -2.53879,1.46579 -3.63864,4.28121 -2.465998,6.31227 1.172628,2.03106 4.160522,2.48589 6.699332,1.02009 l 16.803108,-9.70121 v 7.80831 L 68.3959,238.26947 c -2.031069,1.17263 -2.722407,3.75153 -1.549776,5.78259 1.172641,2.03106 3.752009,2.72189 5.783109,1.54926 l 10.134783,-5.85133 v 12.73153 c 0,4.69053 3.776157,8.46667 8.466666,8.46667 4.690531,0 8.466667,-3.77614 8.466667,-8.46667 v -12.73153 l 10.134781,5.85133 c 2.03107,1.17264 4.61048,0.4818 5.78311,-1.54926 1.17263,-2.03106 0.4813,-4.60995 -1.54978,-5.78259 l -14.368111,-8.29562 v -7.80831 l 16.803111,9.70121 c 2.53881,1.4658 5.52669,1.01097 6.69933,-1.02009 1.17263,-2.03106 0.0728,-4.84648 -2.466,-6.31227 L 99.697349,212.38888 v -7.0342 l 10.134781,5.85132 c 2.03107,1.17264 4.60996,0.48128 5.78259,-1.54977 1.17263,-2.03107 0.48182,-4.60996 -1.54926,-5.7826 l -14.368111,-8.29561 v -6.54999 l 5.943821,-10.2955 10.94714,6.32055 a 6.9280441,6.9280441 0 0 0 6.92826,0 l 3.16104,-1.82522 a 6.9282801,6.9282801 0 0 0 3.46439,-6.00014 v -12.64006 h 11.88972 l 5.67097,3.27422 v 16.59072 c 0,2.34528 1.88806,4.23333 4.23333,4.23333 2.34526,0 4.23332,-1.88802 4.23333,-4.23333 v -11.70265 l 6.09214,3.5171 v 24.29102 c 2e-5,2.93155 1.88807,5.29168 4.23333,5.29167 2.34527,0 4.23334,-2.36009 4.23333,-5.29167 v -19.40243 l 6.76238,3.90415 v 16.59072 c -1e-5,2.34528 1.88755,4.23385 4.23282,4.23385 2.34526,-10e-6 4.23331,-1.88854 4.23333,-4.23385 v -11.70264 l 11.02569,6.3655 c 4.06212,2.34527 9.22046,0.96359 11.5657,-3.09852 2.34527,-4.06211 0.96308,-9.22044 -3.09904,-11.5657 l -11.02569,-6.36602 10.13479,-5.85132 c 2.03107,-1.17264 2.7224,-3.75206 1.54977,-5.78311 -1.17264,-2.03106 -3.75153,-2.7214 -5.78258,-1.54874 l -14.36812,8.2951 -6.76238,-3.90416 16.80311,-9.70122 c 2.53884,-1.46577 3.63863,-4.2807 2.466,-6.31175 -1.17264,-2.03106 -4.16052,-2.48639 -6.69933,-1.02061 l -21.03645,12.14551 -6.09213,-3.5171 10.13478,-5.85132 c 2.03107,-1.17264 2.72189,-3.75206 1.54926,-5.78311 -1.17264,-2.03105 -3.75152,-2.72191 -5.78259,-1.54926 l -14.36812,8.2951 -5.672,-3.27473 -5.94434,-10.2955 10.94662,-6.32003 a 6.9281492,6.9281492 0 0 0 3.46438,-6.00015 v -3.65042 a 6.9282346,6.9282346 0 0 0 -3.46438,-6.00015 l -10.94662,-6.32003 5.94485,-10.29601 5.67149,-3.274738 14.36812,8.295098 c 2.03107,1.17265 4.60995,0.4818 5.78259,-1.54926 1.17263,-2.03105 0.48181,-4.610465 -1.54926,-5.783106 l -10.13478,-5.851321 6.09213,-3.517099 21.03645,12.145506 c 2.53881,1.46579 5.52669,1.01045 6.69933,-1.0206 1.17263,-2.031071 0.0728,-4.845983 -2.466,-6.311764 l -16.80311,-9.701216 6.76238,-3.904154 14.36812,8.2951 c 2.03105,1.172649 4.60994,0.482317 5.78258,-1.548741 1.17263,-2.031056 0.4813,-4.61047 -1.54977,-5.783112 l -10.13479,-5.851321 11.02569,-6.36602 c 4.06212,-2.345267 5.44431,-7.503068 3.09904,-11.565184 -2.34524,-4.062103 -7.50358,-5.444302 -11.5657,-3.099035 l -11.02569,6.365502 V 49.31201 c -2e-5,-2.345299 -1.88807,-4.233841 -4.23333,-4.23385 -2.34527,4e-6 -4.23283,1.888574 -4.23282,4.23385 v 16.590718 l -6.76238,3.904155 V 50.40445 c 1e-5,-2.931573 -1.88806,-5.291672 -4.23333,-5.291667 -2.34526,-9e-6 -4.23331,2.360111 -4.23333,5.291667 v 24.291023 l -6.09214,3.517098 V 66.509926 c -1e-5,-2.345301 -1.88807,-4.233325 -4.23333,-4.233333 -2.34527,5e-6 -4.23333,1.888056 -4.23333,4.233333 v 16.590719 l -5.67201,3.274735 H 130.142 V 73.734808 a 6.9280394,6.9280394 0 0 0 -3.46439,-6.00015 l -3.16104,-1.824696 a 6.9283701,6.9283701 0 0 0 -6.92826,0 L 105.64169,72.22999 99.697349,61.934494 v -6.549471 l 14.368111,-8.295617 c 2.03108,-1.172635 2.72189,-3.75153 1.54926,-5.782592 -1.17263,-2.031055 -3.75152,-2.722412 -5.78259,-1.549777 L 99.697349,45.60836 V 38.574164 L 120.73379,26.428652 c 2.53881,-1.46579 3.63863,-4.281221 2.466,-6.312276 -1.17264,-2.031063 -4.16052,-2.485883 -6.69933,-1.020093 L 99.697349,28.7975 v -7.808309 l 14.368111,-8.295618 c 2.03108,-1.172634 2.72241,-3.7515284 1.54978,-5.7825922 -1.17263,-2.0310531 -3.75204,-2.7218926 -5.78311,-1.5492595 L 99.697349,11.213044 V -1.5184788 c 0,-4.6905322 -3.776136,-8.4666655 -8.466667,-8.4666655 z M 62.398333,73.254735 a 2.3094009,2.3094009 0 0 1 1.166855,0.309541 l 9.363252,5.405871 -2.27583,3.941361 A 6.9282026,6.9282026 0 0 1 64.652461,86.37538 H 60.101316 V 75.564153 a 2.3094009,2.3094009 0 0 1 2.297017,-2.309418 z m 57.625937,0 a 2.3093853,2.3093853 0 0 1 2.33526,2.309418 V 86.37538 h -4.55114 a 6.9282042,6.9282042 0 0 1 -5.99964,-3.463872 l -2.27583,-3.941877 9.36274,-5.405355 a 2.3093853,2.3093853 0 0 1 1.12861,-0.309541 z M 74.297349,91.614854 h 8.466667 v 16.933336 l -0.88005,1.76061 -13.140282,-7.58662 z m 25.4,0 h 8.466671 l 5.55366,11.107326 -13.14028,7.58662 -0.880051,-1.76061 z m -38.540282,26.280046 13.140282,7.58662 -13.140282,7.58662 -3.793051,-7.58662 z m 60.147233,0 3.79305,7.58662 -3.79305,7.58662 -13.14028,-7.58662 z m -79.504708,0.18087 2.275829,3.94136 a 6.9281566,6.9281566 0 0 1 0,6.92826 l -2.275829,3.94188 -9.363252,-5.40587 a 2.3093801,2.3093801 0 0 1 0,-3.99976 z m 98.862178,0 9.36325,5.40587 a 2.3094025,2.3094025 0 0 1 0,3.99976 l -9.36325,5.40587 -2.27583,-3.94188 a 6.9281587,6.9281587 0 0 1 0,-6.92826 z m -58.777804,22.57847 0.88005,1.76061 v 16.93334 h -8.466667 l -5.553665,-11.10734 z m 18.693434,0 13.14028,7.58661 -5.55366,11.10734 h -8.466671 v -16.93334 z m -40.476084,23.93342 h 4.551661 a 6.9281701,6.9281701 0 0 1 6.000149,3.46387 l 2.275314,3.94136 -9.363252,5.40587 a 2.3094007,2.3094007 0 0 1 -3.463872,-1.99987 z m 57.623874,0 a 6.9281701,6.9281701 0 0 1 0.0827,0 h 4.55166 v 10.81123 a 2.3093851,2.3093851 0 0 1 -3.46387,1.99987 l -9.36325,-5.40587 2.27583,-3.94136 a 6.9281701,6.9281701 0 0 1 5.91695,-3.46387 z"
       inkscape:path-effect="#path-effect871"
       d="m 89.248697,-9.7537856 c -3.092786,0.7364359 -5.51689,3.1605333 -6.253324,6.2533282 -0.255275,1.0720758 -0.231357,2.8774091 -0.231357,3.9819786 V 9.213044 a 1.1547002,1.1547002 150.00001 0 1 -1.732051,1 L 74.361284,6.3617217 C 73.404698,5.8094367 71.822926,4.8536875 70.730093,4.796553 69.840335,4.7500355 68.955727,4.9869748 68.208394,5.4720078 67.290421,6.06779 66.338052,7.717305 66.281054,8.8101388 c -0.0464,0.8896232 0.190662,1.7740612 0.675758,2.5212722 0.595909,0.917897 2.214549,1.809885 3.171129,2.362178 l 10.904034,6.295586 a 3.4641397,3.4641397 60.000273 0 1 1.732041,3.000016 V 26.7975 a 1.1547042,1.1547042 149.99992 0 1 -1.732054,1.000005 l -13.339,-7.701227 c -0.956587,-0.552282 -2.512886,-1.489804 -3.587811,-1.724242 -1.237714,-0.26994 -2.455622,-0.130888 -3.41619,0.381034 -0.962029,0.5127 -1.931337,2.191618 -1.894398,3.281127 0.03689,1.087951 0.525364,2.212379 1.377984,3.149401 0.740432,0.813729 2.330491,1.692772 3.287074,2.245061 l 17.572348,10.145498 a 3.4641182,3.4641182 60.000119 0 1 1.732047,3.000007 v 3.034196 a 1.1547002,1.1547002 150.00001 0 1 -1.732051,1 l -6.670681,-3.851323 c -0.956586,-0.552285 -2.538376,-1.508069 -3.63121,-1.565068 -0.889626,-0.0464 -1.774061,0.190662 -2.521269,0.675759 -0.917897,0.59591 -1.87023,2.245389 -1.927341,3.338221 -0.04649,0.889606 0.190432,1.774029 0.675418,2.521233 0.595814,0.917953 2.214479,1.809947 3.171059,2.36224 l 10.904034,6.295585 a 3.4641395,3.4641395 60.000271 0 1 1.732041,3.000016 v 2.549471 a 7.4638476,7.4638476 105.00049 0 1 -1.000029,3.732034 l -3.944283,6.831428 a 2.0000757,2.0000757 164.99989 0 1 -2.732101,0.73207 l -7.482992,-4.3201 c -0.956597,-0.552265 -2.512915,-1.481881 -3.583431,-1.738021 -1.059798,-0.253575 -2.16573,-0.253576 -3.225529,-2e-6 -1.070522,0.256139 -2.626792,1.185847 -3.583325,1.738223 -0.789565,0.455954 -2.23735,1.260891 -2.994387,2.059957 -0.749319,0.790921 -1.302178,1.748504 -1.612472,2.792895 -0.313492,1.055153 -0.286621,2.867777 -0.286621,3.972346 l 0,8.640056 a 2,2 135 0 1 -2,2 h -7.888163 a 7.4640989,7.4640989 15.000005 0 1 -3.732051,-1 l -2.207903,-1.274735 a 3.4641023,3.4641023 60.000005 0 1 -1.732051,-3 V 68.509926 c 0,-1.104569 0.03683,-2.952317 -0.460161,-3.927272 -0.404609,-0.79372 -1.052116,-1.441238 -1.845828,-1.845861 -0.974985,-0.497033 -2.879661,-0.497031 -3.854617,-3.7e-5 -0.793719,0.404607 -1.441237,1.052111 -1.845861,1.845825 -0.497033,0.974985 -0.4602,2.822776 -0.4602,3.927345 l 0,7.702645 a 1.1547329,1.1547329 149.9993 0 1 -1.732075,1.000042 L 21.931952,75.695431 A 3.4640045,3.4640045 59.999304 0 1 20.199877,72.695473 V 52.40445 c 0,-1.104569 0.03376,-2.921139 -0.300781,-3.969233 -0.38523,-1.206899 -1.114865,-2.192125 -2.038683,-2.768019 -0.925096,-0.57669 -2.863733,-0.576719 -3.788748,1.08e-4 -0.923539,0.575906 -1.652812,1.56108 -2.037835,2.767902 -0.334395,1.048132 -0.30062,2.864673 -0.30062,3.969242 v 15.402433 a 1.1547161,1.1547161 149.99967 0 1 -1.732062,1.00002 L 6.7028957,66.902708 A 3.464055,3.464055 59.999666 0 1 4.9708332,63.902728 V 51.31201 c 0,-1.104569 0.036836,-2.952284 -0.4600165,-3.927318 -0.4045081,-0.793817 -1.051884,-1.441468 -1.8455018,-1.846191 -0.974905,-0.497176 -2.87962924,-0.497154 -3.8545411,-8.3e-5 -0.7937619,0.40471 -1.441309,1.052376 -1.8459346,1.846229 -0.4969675,0.975023 -0.4601566,2.822794 -0.4601566,3.927363 v 7.702645 a 1.1547439,1.1547439 149.99907 0 1 -1.7320833,1.000056 l -7.5620343,-4.365614 c -0.956603,-0.552254 -2.508124,-1.475614 -3.564209,-1.790582 -3.046557,-0.908606 -6.357659,-0.02131 -8.541728,2.288894 -0.757097,0.800821 -1.666999,2.376818 -1.981998,3.432894 -0.908704,3.046551 -0.02169,6.357644 2.288419,8.54172 0.800805,0.757115 2.37623,1.639066 3.332814,2.191354 l 7.562105,4.36601 a 1.1547043,1.1547043 90.000074 0 1 -3e-6,2.000005 l -6.67068,3.851321 c -0.956586,0.552285 -2.575179,1.44427 -3.171049,2.362138 -0.48516,0.747335 -0.722253,1.631958 -0.675847,2.52173 0.057,1.092879 1.009328,2.742431 1.927288,3.338147 0.74719,0.484894 1.631594,0.7217 2.521184,0.675134 1.092876,-0.05721 2.674663,-1.012998 3.631258,-1.565266 l 10.9039794,-6.29516 a 3.4642187,3.4642187 1.6465641e-4 0 1 3.4641309,1e-5 l 3.2982516,1.904194 a 1.1546811,1.1546811 89.999743 0 1 9e-6,1.999975 L -11.80451,93.172841 c -0.956587,0.552282 -2.546652,1.431307 -3.287177,2.244971 -0.852689,0.936906 -1.3413,2.061149 -1.378303,3.148974 -0.03706,1.089487 0.932284,2.768394 1.894293,3.281164 0.960702,0.51207 2.178829,0.65129 3.416702,0.38141 1.074928,-0.23436 2.6312278,-1.17188 3.5878108,-1.72417 L 10.001163,90.359701 a 3.4641824,3.4641824 179.99919 0 1 3.464122,-4.9e-5 l 2.627984,1.517183 a 1.1546685,1.1546685 89.999304 0 1 2.4e-5,1.999958 l -6.6706803,3.851321 c -0.9565852,0.552285 -2.5752038,1.444275 -3.1709789,2.362196 -0.485049,0.74733 -0.7220044,1.63194 -0.6755071,2.52169 0.057112,1.09288 1.009429,2.74238 1.9273328,3.33819 0.7471962,0.48501 1.6316151,0.72195 2.5212225,0.67548 1.092877,-0.0571 2.674686,-1.01289 3.631281,-1.56516 l 10.90398,-6.295159 a 3.4641698,3.4641698 5.2152465e-4 0 1 3.464118,3.2e-5 l 2.207905,1.274737 a 7.4643681,7.4643681 44.999522 0 1 2.73208,2.73203 l 3.944281,6.83143 a 1.9999954,1.9999954 104.99908 0 1 -0.732006,2.73206 l -7.483063,4.32049 c -0.956577,0.5523 -2.539784,1.43535 -3.296825,2.23441 -0.749448,0.79105 -1.302365,1.74881 -1.612626,2.7934 -0.313408,1.05518 -0.286457,2.8678 -0.286457,3.97237 0,0.91152 -0.02696,2.56761 0.286443,3.62278 0.310257,1.04459 0.863175,2.00236 1.612626,2.79341 0.757047,0.79907 2.340278,1.68208 3.296874,2.23434 l 7.482993,4.32011 a 1.999925,1.999925 74.999891 0 1 0.732042,2.73199 l -3.944283,6.83144 a 7.464346,7.464346 135.0005 0 1 -2.73208,2.73203 l -2.207903,1.27473 a 3.4641736,3.4641736 179.99951 0 1 -3.464119,3e-5 l -10.90398,-6.29516 c -0.956595,-0.55227 -2.538368,-1.50804 -3.631201,-1.56515 -0.8896058,-0.0465 -1.7740278,0.19044 -2.5212316,0.67543 -0.9179525,0.59581 -1.8702675,2.24532 -1.9273993,3.33815 -0.046515,0.88975 0.1904238,1.77436 0.6754576,2.5217 0.5957811,0.91797 2.2144388,1.80999 3.171024,2.36227 l 6.6706803,3.85132 a 1.1546686,1.1546686 90.00069 0 1 -2.4e-5,1.99996 l -2.627984,1.51718 a 3.4641813,3.4641813 8.0604914e-4 0 1 -3.464122,-5e-5 L -7.5711843,150.45733 c -0.956583,-0.55229 -2.5128927,-1.48981 -3.5878347,-1.72417 -1.237874,-0.26987 -2.456001,-0.13065 -3.4167,0.38143 -0.961995,0.51277 -1.931339,2.19168 -1.89427,3.28118 0.03701,1.08781 0.525628,2.21205 1.378316,3.14895 0.740519,0.81365 2.330576,1.69267 3.287162,2.24496 l 13.3390011,7.70122 a 1.1546823,1.1546823 90.000243 0 1 -8.5e-6,1.99998 l -3.298253,1.9042 a 3.4642161,3.4642161 179.99982 0 1 -3.4641302,1e-5 l -10.9039794,-6.29516 c -0.956595,-0.55227 -2.538344,-1.50804 -3.631175,-1.56527 -0.889593,-0.0466 -1.774002,0.19021 -2.521201,0.67509 -0.918006,0.59572 -1.870331,2.24528 -1.92735,3.33811 -0.04642,0.88977 0.190653,1.7744 0.675798,2.52174 0.595875,0.91792 2.214509,1.80993 3.171094,2.36221 l 6.67068,3.85132 a 1.1547042,1.1547042 89.999924 0 1 3e-6,2 l -7.562105,4.36602 c -0.956584,0.55228 -2.532014,1.43424 -3.332807,2.19137 -2.310126,2.18417 -3.197138,5.49556 -2.288416,8.54222 0.314994,1.05607 1.224891,2.63207 1.98201,3.43288 2.184073,2.3101 5.495171,3.19712 8.541723,2.28841 1.056073,-0.315 2.607589,-1.23835 3.564192,-1.7906 l 7.5620342,-4.36562 a 1.1547441,1.1547441 30.000935 0 1 1.7320834,1.00006 v 7.70264 c 0,1.10457 -0.03681,2.9523 0.4601158,3.92729 0.40461,0.79386 1.0521458,1.44155 1.8458998,1.84627 0.97494266,0.49711 2.8796683,0.49712 3.8545438,-1e-5 0.7936274,-0.40471 1.4410156,-1.05235 1.8455384,-1.84616 0.4968904,-0.97506 0.4600528,-2.82282 0.4600528,-3.92739 v -12.59072 a 3.4640528,3.4640528 120.00035 0 1 1.732063,-2.99998 l 3.2982508,-1.90419 a 1.1547168,1.1547168 30.00035 0 1 1.732063,1.00002 v 15.40243 c 0,1.10457 -0.03378,2.92112 0.300625,3.96926 0.385028,1.20683 1.114305,2.192 2.037848,2.7679 0.925009,0.57682 2.863646,0.57679 3.788748,8e-5 0.923814,-0.5759 1.653445,-1.56113 2.038671,-2.76803 0.334534,-1.04808 0.300775,-2.86464 0.300775,-3.96921 v -20.29102 a 3.4640055,3.4640055 120.00069 0 1 1.732075,-2.99996 l 2.627984,-1.51718 a 1.1547326,1.1547326 30.000688 0 1 1.732075,1.00004 l 0,7.70265 c 0,1.10457 -0.03683,2.95232 0.460163,3.92727 0.404609,0.79372 1.052116,1.44124 1.845825,1.84586 0.974985,0.49703 2.879661,0.49703 3.854617,4e-5 0.793721,-0.40461 1.44124,-1.05211 1.845864,-1.84583 0.497034,-0.97498 0.460198,-2.82277 0.460198,-3.92734 v -12.59072 a 3.464146,3.464146 119.99968 0 1 1.73204,-3.00002 l 2.20689,-1.27418 a 7.4639359,7.4639359 164.99968 0 1 3.73204,-1.00002 h 7.889198 a 2,2 45 0 1 2,2 v 8.64006 c 0,1.10457 -0.0269,2.91719 0.286571,3.97234 0.31028,1.04441 0.863145,2.00201 1.612486,2.79293 0.757052,0.79906 2.340325,1.682 3.296965,2.23419 0.789743,0.45585 2.210785,1.30727 3.281305,1.5634 1.059791,0.25356 2.165709,0.25356 3.2255,0 1.070526,-0.25612 2.626851,-1.18574 3.583436,-1.73802 l 7.482515,-4.32003 a 2.000034,2.000034 14.999522 0 1 2.73208,0.73203 l 3.944283,6.83144 a 7.4638501,7.4638501 74.999517 0 1 1.000029,3.73203 v 2.54999 a 3.464138,3.464138 119.99974 0 1 -1.732042,3.00002 l -10.904032,6.29557 c -0.956581,0.5523 -2.575207,1.44427 -3.171015,2.36218 -0.485002,0.74719 -0.721942,1.63161 -0.675467,2.52122 0.05709,1.09288 1.009429,2.74236 1.927278,3.33826 0.7472,0.48511 1.63163,0.72219 2.521255,0.6758 1.092879,-0.057 2.674706,-1.01279 3.631291,-1.56507 l 6.670681,-3.85132 a 1.1547005,1.1547005 29.999999 0 1 1.732051,1 v 3.0342 a 3.464118,3.464118 119.99988 0 1 -1.732047,3.00001 l -17.572348,10.14549 c -0.956583,0.55229 -2.546652,1.43134 -3.28709,2.24508 -0.852617,0.93702 -1.34109,2.06145 -1.377969,3.1494 -0.03693,1.0895 0.932377,2.76842 1.894419,3.28112 0.960571,0.51191 2.17848,0.65096 3.416193,0.38102 1.074912,-0.23444 2.631201,-1.17196 3.587788,-1.72424 l 13.339,-7.70123 a 1.1547046,1.1547046 30.000088 0 1 1.732054,1.00001 v 3.80831 a 3.4641401,3.4641401 119.99972 0 1 -1.732041,3.00002 l -10.904034,6.29558 c -0.95658,0.5523 -2.575183,1.44426 -3.171085,2.36211 -0.485111,0.7472 -0.722188,1.63164 -0.675806,2.52126 0.05698,1.09288 1.009349,2.74239 1.927273,3.33817 0.747324,0.48505 1.631929,0.722 2.521688,0.6755 1.092878,-0.0571 2.674687,-1.01289 3.631272,-1.56517 l 6.670683,-3.85133 a 1.1546995,1.1546995 29.999978 0 1 1.73205,1 v 8.73153 c 0,1.10457 -0.02392,2.90991 0.231358,3.98199 0.736438,3.09279 3.160544,5.51689 6.25333,6.25332 1.072075,0.25528 2.891884,0.25528 3.963964,0 3.092796,-0.73643 5.516894,-3.16053 6.253325,-6.25333 0.255274,-1.07208 0.231356,-2.87741 0.231356,-3.98198 l 0,-8.73153 a 1.1546994,1.1546994 150.00002 0 1 1.732051,-1 l 6.67068,3.85133 c 0.95658,0.55228 2.53836,1.50804 3.63119,1.56517 0.88975,0.0465 1.77437,-0.19042 2.5217,-0.67545 0.91798,-0.59579 1.87034,-2.2453 1.92734,-3.33814 0.0464,-0.88962 -0.19066,-1.77406 -0.67576,-2.52127 -0.59591,-0.9179 -2.21455,-1.80988 -3.17113,-2.36218 l -10.90403,-6.29558 a 3.4641407,3.4641407 60.00028 0 1 -1.732041,-3.00002 v -3.80831 a 1.1547047,1.1547047 149.99991 0 1 1.732051,-1.00001 l 13.33901,7.70123 c 0.95658,0.55228 2.51288,1.4898 3.58781,1.72424 1.23771,0.26994 2.45561,0.13089 3.41618,-0.38104 0.96203,-0.5127 1.93134,-2.19161 1.8944,-3.28112 -0.0369,-1.08795 -0.52536,-2.21238 -1.37798,-3.1494 -0.74043,-0.81373 -2.33049,-1.69277 -3.28708,-2.24506 L 101.4294,213.38889 a 3.464118,3.464118 60.000118 0 1 -1.732051,-3.00001 v -3.0342 a 1.1547004,1.1547004 150 0 1 1.732051,-1 l 6.67068,3.85132 c 0.95658,0.55228 2.53837,1.50807 3.63121,1.56507 0.88962,0.0464 1.77406,-0.19066 2.52126,-0.67576 0.9179,-0.5959 1.87023,-2.24538 1.92735,-3.33821 0.0465,-0.88962 -0.19043,-1.77404 -0.67542,-2.52125 -0.59582,-0.91795 -2.21448,-1.80994 -3.17106,-2.36224 l -10.90403,-6.29557 a 3.4641386,3.4641386 60.000265 0 1 -1.732041,-3.00002 v -2.54999 a 7.4644156,7.4644156 104.9994 0 1 0.999961,-3.73207 l 3.9439,-6.83136 a 1.9999284,1.9999284 164.99982 0 1 2.732,-0.73204 l 7.48306,4.32049 c 0.95658,0.5523 2.51288,1.48195 3.5834,1.73809 1.0598,0.25358 2.16573,0.25358 3.22553,0 1.07052,-0.25614 2.62682,-1.18581 3.58338,-1.73814 0.78924,-0.45572 2.23681,-1.26039 2.99392,-2.05939 0.74958,-0.79105 1.30261,-1.74887 1.61295,-2.79353 0.31346,-1.05517 0.28655,-2.86779 0.28655,-3.97236 v -8.64006 a 2,2 135 0 1 2,-2 h 7.88972 a 7.4639359,7.4639359 15.000318 0 1 3.73204,1.00002 l 2.20689,1.27418 a 3.464146,3.464146 60.000318 0 1 1.73204,3.00002 v 12.59072 c 0,1.10457 -0.0368,2.95232 0.46016,3.92727 0.40461,0.79372 1.05211,1.44124 1.84582,1.84586 0.97499,0.49704 2.87967,0.49703 3.85462,4e-5 0.79372,-0.4046 1.44124,-1.05211 1.84586,-1.84582 0.49703,-0.97499 0.4602,-2.82278 0.4602,-3.92735 v -7.70265 a 1.1547331,1.1547331 149.9993 0 1 1.73208,-1.00004 l 2.62798,1.51718 a 3.4640038,3.4640038 59.999299 0 1 1.73208,2.99996 v 20.29102 c 0,1.10457 -0.0338,2.92113 0.30071,3.96925 0.38513,1.20685 1.11458,2.19205 2.03826,2.76795 0.92505,0.57676 2.86368,0.57676 3.78874,0 0.92369,-0.57591 1.65314,-1.56111 2.03826,-2.76797 0.33446,-1.04811 0.30069,-2.86466 0.30069,-3.96923 l 0,-15.40243 a 1.1547171,1.1547171 149.99964 0 1 1.73206,-1.00002 l 3.29826,1.90419 a 3.464052,3.464052 59.999644 0 1 1.73206,2.99998 v 12.59072 c 0,1.10457 -0.0368,2.95228 0.46001,3.92732 0.40451,0.79382 1.05189,1.44147 1.84551,1.84619 0.97491,0.49718 2.87963,0.49715 3.85454,8e-5 0.79376,-0.40471 1.44131,-1.05237 1.84594,-1.84623 0.49696,-0.97502 0.46015,-2.82279 0.46015,-3.92736 v -7.70264 a 1.1547173,1.1547173 149.99964 0 1 1.73206,-1.00002 l 7.56157,4.36554 c 0.95659,0.55227 2.5081,1.47564 3.56418,1.79064 3.04666,0.90872 6.35805,0.0217 8.54222,-2.28842 0.75713,-0.8008 1.66703,-2.3768 1.98199,-3.43289 0.90863,-3.04666 0.0213,-6.35805 -2.2889,-8.54222 -0.80081,-0.75711 -2.37623,-1.63908 -3.3328,-2.19139 l -7.56163,-4.36594 a 1.1547305,1.1547305 90.000661 0 1 2e-5,-2.00004 l 6.67069,-3.85132 c 0.95658,-0.55228 2.57518,-1.44427 3.17105,-2.36214 0.48516,-0.74733 0.72225,-1.63196 0.67584,-2.52173 -0.057,-1.09288 -1.00933,-2.74243 -1.92729,-3.33814 -0.74719,-0.4849 -1.63159,-0.72171 -2.52117,-0.67514 -1.09288,0.0572 -2.67466,1.013 -3.63126,1.56527 l -10.90398,6.29516 a 3.4642174,3.4642174 1.8156268e-4 0 1 -3.46413,-1e-5 l -3.29826,-1.9042 a 1.1546819,1.1546819 89.999753 0 1 -1e-5,-1.99998 l 13.33901,-7.70122 c 0.95658,-0.55229 2.54666,-1.43131 3.28714,-2.24502 0.85258,-0.93689 1.34102,-2.06112 1.37792,-3.14893 0.037,-1.0895 -0.93236,-2.76839 -1.89436,-3.28119 -0.96057,-0.51203 -2.17849,-0.65124 -3.41622,-0.38139 -1.07493,0.23436 -2.63122,1.17189 -3.58781,1.72418 l -17.57235,10.14549 a 3.4641809,3.4641809 179.99921 0 1 -3.46412,5e-5 l -2.62799,-1.51718 a 1.1546691,1.1546691 89.999315 0 1 -2e-5,-1.99996 l 6.67068,-3.85132 c 0.95658,-0.55228 2.5752,-1.44427 3.17098,-2.3622 0.48505,-0.74733 0.722,-1.63194 0.67551,-2.52169 -0.0571,-1.09288 -1.00944,-2.74238 -1.92734,-3.33819 -0.74719,-0.485 -1.63161,-0.72195 -2.52122,-0.67548 -1.09287,0.0571 -2.67468,1.01289 -3.63128,1.56516 l -10.90398,6.29516 a 3.4641726,3.4641726 5.0261789e-4 0 1 -3.46412,-3e-5 l -2.2079,-1.27473 a 7.4643506,7.4643506 44.999517 0 1 -2.73208,-2.73203 l -3.94428,-6.83144 a 1.9999659,1.9999659 104.99953 0 1 0.73202,-2.73203 l 7.48252,-4.32003 c 0.95658,-0.55228 2.53984,-1.43524 3.29695,-2.23424 0.74959,-0.79105 1.30262,-1.74888 1.61295,-2.79355 0.31345,-1.05517 0.28653,-2.86779 0.28653,-3.97236 0,-0.91152 0.0269,-2.56761 -0.28654,-3.62277 -0.31033,-1.04467 -0.86336,-2.00249 -1.61294,-2.79355 -0.75711,-0.799 -2.34037,-1.68197 -3.29695,-2.23425 l -7.48252,-4.32003 a 1.9999345,1.9999345 75.000923 0 1 -0.73199,-2.73202 l 3.94473,-6.83197 a 7.4651822,7.4651822 134.99979 0 1 2.73207,-2.73209 l 2.20747,-1.274599 a 3.464013,3.464013 179.99835 0 1 3.46408,-1e-4 l 10.90398,6.295159 c 0.9566,0.55227 2.53837,1.50804 3.6312,1.56515 0.88961,0.0465 1.77403,-0.19043 2.52124,-0.67542 0.91795,-0.59582 1.87026,-2.24533 1.92739,-3.33816 0.0465,-0.88975 -0.19042,-1.77436 -0.67546,-2.5217 -0.59578,-0.917971 -2.21444,-1.809981 -3.17102,-2.362266 l -6.67068,-3.851321 a 1.154669,1.154669 90.00069 0 1 2e-5,-1.999959 l 2.62799,-1.517181 a 3.464182,3.464182 7.9203878e-4 0 1 3.46412,4.8e-5 l 17.57235,10.145489 c 0.95659,0.55229 2.51289,1.48983 3.58783,1.72419 1.23773,0.26985 2.45565,0.13063 3.41622,-0.38141 0.96198,-0.51279 1.9313,-2.191684 1.89434,-3.281191 -0.0369,-1.08781 -0.52537,-2.212035 -1.37795,-3.148932 -0.74046,-0.8137 -2.33053,-1.692724 -3.28711,-2.245006 l -13.33901,-7.701226 a 1.1546808,1.1546808 90.000261 0 1 1e-5,-1.999974 l 3.29826,-1.904196 a 3.4642201,3.4642201 179.99984 0 1 3.46413,-1e-5 l 10.90398,6.295162 c 0.9566,0.552267 2.53835,1.508038 3.63118,1.565261 0.88958,0.04658 1.77399,-0.19021 2.52118,-0.675086 0.91801,-0.595722 1.87034,-2.245274 1.92736,-3.338108 0.0464,-0.889772 -0.19065,-1.774399 -0.6758,-2.521742 -0.59587,-0.917919 -2.21451,-1.809924 -3.17109,-2.362209 l -6.67069,-3.851321 a 1.1547306,1.1547306 89.999342 0 1 -2e-5,-2.000039 l 7.56163,-4.365942 c 0.95657,-0.552306 2.53199,-1.434276 3.33281,-2.191376 2.31022,-2.184076 3.19751,-5.495173 2.2889,-8.541729 -0.31497,-1.05608 -1.22488,-2.632081 -1.98199,-3.432891 -2.18417,-2.310217 -5.49557,-3.197514 -8.54223,-2.288889 -1.05608,0.314961 -2.60759,1.238333 -3.56418,1.790605 l -7.56157,4.365546 a 1.1547171,1.1547171 30.000357 0 1 -1.73206,-1.000022 V 51.31201 c 0,-1.104569 0.0368,-2.952295 -0.46012,-3.927288 -0.40461,-0.793862 -1.05214,-1.44154 -1.84589,-1.846265 -0.97495,-0.497112 -2.87967,-0.49713 -3.85455,6e-6 -0.79362,0.404708 -1.44101,1.052348 -1.84554,1.846155 -0.49689,0.975064 -0.46005,2.822823 -0.46005,3.927392 v 12.590718 a 3.4640542,3.4640542 120.00034 0 1 -1.73206,2.999979 l -3.29826,1.904197 a 1.1547163,1.1547163 30.00034 0 1 -1.73206,-1.000021 V 52.40445 c 0,-1.104569 0.0338,-2.92113 -0.3007,-3.969249 -0.38512,-1.206863 -1.11458,-2.192061 -2.03826,-2.767957 -0.92506,-0.576751 -2.8637,-0.576751 -3.78875,1.7e-5 -0.92367,0.575904 -1.65312,1.561105 -2.03825,2.767963 -0.33446,1.048107 -0.3007,2.864657 -0.3007,3.969226 v 20.291023 a 3.4640028,3.4640028 120.00071 0 1 -1.73208,2.999957 l -2.62798,1.517184 a 1.1547335,1.1547335 30.000708 0 1 -1.73208,-1.000043 l 0,-7.702645 c 0,-1.104569 0.0368,-2.952316 -0.46016,-3.927272 -0.40461,-0.793723 -1.05212,-1.441239 -1.84583,-1.845861 -0.97498,-0.497033 -2.87966,-0.497032 -3.85461,-3.7e-5 -0.79372,0.404608 -1.44124,1.052113 -1.84586,1.845825 -0.49704,0.974984 -0.4602,2.822776 -0.4602,3.927345 v 12.590719 a 3.4641008,3.4641008 120.00001 0 1 -1.73205,3 l -2.20791,1.274735 a 7.4641046,7.4641046 165.00001 0 1 -3.73205,1 H 132.142 a 2,2 45 0 1 -2,-2 v -8.640572 c 0,-1.104569 0.0269,-2.917189 -0.28651,-3.972351 -0.31033,-1.044682 -0.86336,-2.002512 -1.61296,-2.793567 -0.75712,-0.798996 -2.34042,-1.681886 -3.29705,-2.234096 -0.78918,-0.45555 -2.20976,-1.306728 -3.28028,-1.562855 -1.05979,-0.25356 -2.16571,-0.253561 -3.22551,-2e-6 -1.07052,0.256126 -2.62685,1.18574 -3.58343,1.738024 l -7.48252,4.32003 a 2.0000349,2.0000349 14.999524 0 1 -2.73208,-0.732035 l -3.94428,-6.831428 a 7.4638476,7.4638476 74.999512 0 1 -1.000031,-3.732034 v -2.549471 a 3.4641401,3.4641401 119.99972 0 1 1.732041,-3.000017 l 10.90403,-6.295583 c 0.95658,-0.552294 2.57521,-1.444265 3.17102,-2.36217 0.485,-0.747196 0.72194,-1.631616 0.67546,-2.521224 -0.0571,-1.092877 -1.00943,-2.742355 -1.92728,-3.338257 -0.7472,-0.48511 -1.63163,-0.722188 -2.52125,-0.675808 -1.09288,0.05698 -2.67471,1.012789 -3.63129,1.565074 l -6.67068,3.851321 A 1.1547001,1.1547001 29.999991 0 1 99.697349,43.60836 v -3.034196 a 3.4641183,3.4641183 119.99988 0 1 1.732051,-3.000007 l 17.57234,-10.145498 c 0.95659,-0.552289 2.54666,-1.431333 3.2871,-2.245072 0.85262,-0.937026 1.34108,-2.061458 1.37796,-3.149411 0.0369,-1.089498 -0.93237,-2.768413 -1.89442,-3.281115 -0.96057,-0.511917 -2.17847,-0.650965 -3.41618,-0.38102 -1.07492,0.234438 -2.63121,1.171955 -3.58779,1.724237 L 101.4294,27.797505 A 1.1547043,1.1547043 30.000081 0 1 99.697349,26.7975 l 0,-3.808309 a 3.4641403,3.4641403 119.99972 0 1 1.732041,-3.000017 l 10.90403,-6.295584 c 0.95658,-0.552294 2.57518,-1.444259 3.17109,-2.362108 0.48511,-0.747202 0.72219,-1.6316375 0.6758,-2.5212618 -0.057,-1.0928786 -1.00935,-2.7423926 -1.92727,-3.338167 -0.74733,-0.4850476 -1.63193,-0.7220041 -2.52169,-0.6755063 -1.09288,0.057113 -2.67469,1.0128899 -3.63127,1.5651749 L 101.4294,10.213043 A 1.1547001,1.1547001 29.999991 0 1 99.697349,9.213044 l 0,-8.7315228 c 0,-1.1045695 0.02392,-2.9099061 -0.231357,-3.9819857 -0.736434,-3.0927962 -3.160534,-5.516893 -6.253331,-6.2533243 -1.072076,-0.2552742 -2.891885,-0.2552742 -3.963964,3.2e-6 z m -25.683509,83.3180616 7.631201,4.405872 a 1.999891,1.999891 75.001537 0 1 0.731957,2.731996 l -0.275642,0.477367 c -0.552337,0.956556 -1.435409,2.539747 -2.234469,3.29679 -0.791046,0.74945 -1.748814,1.302368 -2.793403,1.612628 -1.055179,0.313405 -2.867802,0.286451 -3.972371,0.286451 h -0.551145 a 2,2 45 0 1 -2,-2 l 0,-6.811227 c 0,-1.104569 -0.0019,-3.065184 0.812933,-3.759067 0.66557,-0.566778 2.073581,-0.57426 2.650939,-0.24081 z m 58.227102,0.483664 c 0.58724,0.674196 0.56724,2.411644 0.56724,3.516213 v 6.811227 a 2,2 135 0 1 -2,2 h -0.55114 c -1.10457,0 -2.91719,0.02689 -3.97234,-0.286593 -1.0444,-0.310287 -2.00199,-0.863149 -2.79292,-1.612479 -0.79906,-0.757046 -1.68209,-2.340267 -2.23438,-3.296853 l -0.27583,-0.477771 a 1.9999691,1.9999691 105.00059 0 1 0.73207,-2.732022 l 5.8986,-3.405417 c 0.9566,-0.552268 2.21438,-1.302065 2.86068,-1.30951 z M 76.297349,91.614854 h 4.466667 a 2,2 45 0 1 2,2 v 12.933336 a 8.407204,8.407204 103.17121 0 1 -0.88005,3.76061 l -11.408235,-6.58661 a 2.1236545,2.1236545 73.282652 0 1 -0.83762,-2.78886 l 3.764811,-7.529622 a 3.2360685,3.2360685 148.28253 0 1 2.894427,-1.788854 z m 25.400001,0 h 4.46667 a 3.2360672,3.2360672 31.717481 0 1 2.89443,1.788855 l 3.7648,7.529621 a 2.1236554,2.1236554 106.71736 0 1 -0.83762,2.78886 l -9.67618,5.5866 a 1.8684731,1.8684731 16.234745 0 1 -2.612101,-0.7606 V 93.614854 a 2,2 135 0 1 2.000001,-2 z m -38.808236,27.280056 9.676188,5.5866 a 1.1547119,1.1547119 90 0 1 0,2.00002 l -9.676188,5.5866 a 1.8834938,1.8834938 16.718135 0 1 -2.626425,-0.78887 l -2.004295,-4.00886 a 4.0002731,4.0002731 90 0 1 0,-3.57776 l 2.004295,-4.00886 a 1.8834938,1.8834938 163.28187 0 1 2.626425,-0.78887 z m 59.309566,0.78887 2.00429,4.00886 a 4.0002742,4.0002742 90 0 1 0,3.57776 l -2.00429,4.00886 a 1.8834934,1.8834934 163.28186 0 1 -2.62643,0.78887 l -9.67618,-5.5866 a 1.1547121,1.1547121 90 0 1 0,-2.00002 l 9.67618,-5.5866 a 1.8834934,1.8834934 16.718136 0 1 2.62643,0.78887 z m -79.398994,0.12399 0.275641,0.47736 c 0.552337,0.95656 1.482005,2.51285 1.738142,3.58336 0.253571,1.0598 0.253572,2.16573 2e-6,3.22553 -0.256136,1.07052 -1.185763,2.62684 -1.738045,3.58342 l -0.275839,0.47778 a 1.9999947,1.9999947 164.9999 0 1 -2.732046,0.73205 l -5.89915,-3.40587 c -0.956585,-0.55229 -2.659121,-1.52944 -2.849189,-2.58203 -0.04984,-0.27599 -0.04983,-0.55975 8e-6,-0.83574 0.190084,-1.05257 1.892596,-2.0297 2.849181,-2.58199 l 5.89915,-3.40587 a 2.000109,2.000109 14.998467 0 1 2.732145,0.732 z m 99.594134,-0.732 5.89915,3.40587 c 0.95658,0.55229 2.65911,1.52946 2.84917,2.58205 0.0498,0.27598 0.0498,0.55973 -1e-5,0.83571 -0.19007,1.05256 -1.89258,2.02971 -2.84916,2.582 l -5.89915,3.40587 a 1.9999949,1.9999949 15.000096 0 1 -2.73204,-0.73205 l -0.27585,-0.47778 c -0.55228,-0.95658 -1.4819,-2.5129 -1.73804,-3.58341 -0.25357,-1.0598 -0.25357,-2.16573 0,-3.22553 0.25614,-1.07052 1.18581,-2.62681 1.73814,-3.58337 l 0.27565,-0.47736 a 2.0001092,2.0001092 165.00154 0 1 2.73214,-0.732 z m -59.629804,23.33908 v 14.93334 a 2,2 135 0 1 -2,2 h -4.466667 a 3.2360667,3.2360667 31.717485 0 1 -2.894427,-1.78885 l -3.764811,-7.52964 a 2.1236543,2.1236543 106.71738 0 1 0.83762,-2.78886 l 9.676188,-5.58659 a 1.8684732,1.8684732 16.23477 0 1 2.612097,0.7606 z m 19.545434,-0.7606 9.67618,5.58659 a 2.1236552,2.1236552 73.282613 0 1 0.83762,2.78887 l -3.7648,7.52962 a 3.2360654,3.2360654 148.2825 0 1 -2.89443,1.78886 h -4.46667 a 2,2 45 0 1 -2.000001,-2 v -12.93334 a 8.4071964,8.4071964 103.17123 0 1 0.880051,-3.76061 z m -40.208134,22.93341 0.551661,0 c 1.104569,0 2.917187,-0.027 3.972361,0.28644 1.044591,0.31026 2.002361,0.86318 2.793408,1.61263 0.799065,0.75704 1.682061,2.34029 2.234304,3.29689 l 0.275466,0.47718 a 2.000087,2.000087 105.00127 0 1 -0.732127,2.73209 l -5.89915,3.40587 c -0.956585,0.55229 -2.654108,1.53812 -3.660706,1.17641 -0.263908,-0.0948 -0.509624,-0.2367 -0.723702,-0.41784 -0.816517,-0.69089 -0.811515,-2.65387 -0.811515,-3.75844 v -6.81123 a 2,2 135 0 1 2,-2 z m 55.706574,0 h 2.55166 a 2,2 45 0 1 2,2 v 6.81123 c 0,1.10457 0.005,3.06759 -0.81153,3.75848 -0.21409,0.18114 -0.45981,0.323 -0.72373,0.41783 -1.00658,0.36168 -2.70408,-0.62415 -3.66066,-1.17644 l -5.89915,-3.40587 a 1.9998909,1.9998909 75.001541 0 1 -0.73196,-2.732 l 0.27565,-0.47736 c 0.55233,-0.95656 1.43535,-2.53978 2.23434,-3.29689 0.77068,-0.73028 1.69987,-1.27424 2.71393,-1.58877 1.05132,-0.3261 1.96876,-0.31021 1.96875,-0.31021 z"
       inkscape:transform-center-y="-19.455794"
       inkscape:transform-center-x="7.4957725e-06"
       style="fill:#12f1fd;fill-opacity:1;stroke-width:0.490191"
       id="path890" />
  </g>
</svg>
